<?xml version="1.0" standalone="no"?>
<!DOCTYPE svg PUBLIC "-//W3C//DTD SVG 1.1//EN" "http://www.w3.org/Graphics/SVG/1.1/DTD/svg11.dtd" >
<svg xmlns="http://www.w3.org/2000/svg">
<metadata></metadata>
<defs>
<font id="felipe_script_fontregular" horiz-adv-x="716" >
<font-face units-per-em="2048" ascent="1454" descent="-594" />
<missing-glyph horiz-adv-x="569" />
<glyph horiz-adv-x="0" />
<glyph horiz-adv-x="682" />
<glyph unicode=" "  horiz-adv-x="569" />
<glyph unicode="&#x09;" horiz-adv-x="569" />
<glyph unicode="&#xa0;" horiz-adv-x="569" />
<glyph unicode="!" horiz-adv-x="606" d="M176.5 138q4.5 18 20.5 28q22 537 94 854q9 39 31.5 131.5t33 140t27.5 131.5t22.5 142t10 132t-1.5 142.5t-21 134.5q-6 24 11.5 39t39 10.5t27.5 -28.5q18 -81 22.5 -170t0.5 -162.5t-19.5 -171t-29 -161t-37.5 -167.5q-107 -452 -134 -1075q-1 -21 -19.5 -33.5 t-37.5 -6.5t-22 28q-1 5 -4.5 14t-4.5 12q-14 18 -9.5 36zM180 -225q0 10 8 22l5 6q13 17 24 19q4 2 10 2h2q7 0 11 -2q7 -2 20 -15l6 -6q5 -3 10 -18q9 -26 -16 -47q-10 -9 -23.5 -11.5t-25.5 5.5q-29 22 -31 45zM254 -248l2 2v2q-2 -3 -2 -4z" />
<glyph unicode="&#x22;" horiz-adv-x="681" d="M164 1139q4 13 33.5 100.5t46.5 132.5q4 18 18 60q3 20 27 30q29 10 47 -12q8 -10 9.5 -24.5t-3.5 -30.5t-10.5 -29.5t-13.5 -30t-11 -24.5q-23 -63 -63 -195q-8 -23 -30.5 -27.5t-39.5 11t-10 39.5zM358 1106.5q-13 19.5 0 40.5q45 78 64 151q0 2 4 15t5 17.5t4 16 t3.5 18t1 16t-1 17.5t-4.5 15q-8 23 8 38t38.5 11t31.5 -26q43 -108 -84 -330q-15 -20 -36 -19.5t-34 20z" />
<glyph unicode="#" horiz-adv-x="1126" d="M-194.5 501.5q2.5 25.5 26.5 28.5h4h64q2 0 6 -1t6 -1q173 -8 381 -28q32 128 72 272q-259 -17 -447 53q-12 6 -16 17q-7 1 -18 4t-15 4q-19 7 -22.5 26t9 32.5t31.5 6.5q70 -24 153.5 -24.5t205 14.5t157.5 17q94 365 142 645q4 27 30 24q25 -2 32 -24q2 -9 1 -17 q-47 -280 -135 -626l369 12q121 480 162 704q3 16 15.5 21.5t24.5 -0.5q22 14 39 -6q34 -42 41 -111t-12 -161t-37.5 -159t-52.5 -166t-41 -120q59 0 90 2q93 6 182 0h7v-66v-2l-3 2q-1 0 -2 -1t-2 -1h-168q-65 -3 -129 -12q-41 -133 -127 -399q86 -2 256 -2 q21 -1 29.5 -17.5t-0.5 -33t-29 -17.5q-93 -6 -280 -2q-20 -62 -62.5 -186.5t-62.5 -186.5q-7 -19 -24.5 -23t-31.5 8.5t-10 31.5q38 174 84 362q-8 2 -24 2q-56 1 -168.5 4.5t-169.5 4.5q-71 -269 -113 -474q-5 -19 -22.5 -23t-32 9t-10.5 33q51 239 110 457q-134 4 -418 8 q-22 0 -29 18t3 33q-21 9 -18.5 34.5zM211 836q77 -3 172 4q0 2 1 6.5t1 7.5q-6 -2 -16 -2q-54 -4 -158 -16zM360 494q309 -28 330 -29q8 -2 27 -2q19 77 98 377q-283 -51 -379 -62q-6 -22 -76 -284zM453 846l125 18l-121 -6q-1 -2 -2 -6t-2 -6zM913 948q67 229 91 338 q1 4 18 66t25.5 111t5.5 87q-43 -223 -140 -602z" />
<glyph unicode="%" horiz-adv-x="1402" d="M171.5 1008.5q-8.5 70.5 14.5 126.5q10 23 29 53q29 68 81 109t118 40q23 6 49 9q9 3 20 0q54 3 117 -23q18 -7 21.5 -25.5t-9 -31.5t-30.5 -6q23 -20 43 -54q120 -156 24 -272q-55 -65 -123 -107q-77 -51 -159 -45q-62 3 -111 49l-4 5q-19 16 -37 45q-35 57 -43.5 127.5 zM172 -31q30 66 63 128.5t79.5 135.5t73.5 116.5t89.5 129.5t81 111.5t94.5 126t86 114.5l64 82q217 331 311 598q0 13 14 23l31 18q12 10 27 8t24 -16q13 -20 14.5 -44.5t-9.5 -52t-22 -48t-29.5 -50t-24.5 -40.5q-119 -216 -297 -453q-66 -98 -200 -283t-235 -337.5 t-178 -298.5q-11 -17 -27 -17.5t-27 15t-3 34.5zM238 1051q0 -51 19.5 -101t53.5 -78q65 -36 158 -2q59 34 97 94.5t32 122.5q-3 59 -51 117l-33 31q-48 38 -94 35q-55 -12 -96 -47q-69 -66 -86 -172zM580 1262l2 -2q0 2 -2 2zM788 86q-38 83 2 228t125 227q4 11 17 16l6 4 q82 59 160 19q112 -19 168 -140q4 -4 4 -10q42 -61 30 -145l-12 -52q-20 -82 -71 -133q-54 -70 -130 -104q-39 -16 -82.5 -19.5t-85 6t-77 36t-54.5 67.5zM872 231q-4 -95 64 -131.5t158 -1.5q57 21 90 68q3 4 22 37q20 45 20.5 98t-18.5 98q-23 39 -64.5 57t-94.5 5 q-72 -18 -123 -86t-54 -144zM977 504q8 4 14 6q-2 0 -4.5 -1t-3.5 -1z" />
<glyph unicode="&#x26;" horiz-adv-x="1433" d="M-57 53q14 74 56.5 138t86.5 102t113 94.5t108 95.5q86 86 158 189q-101 222 -92 444q13 359 239 422q59 15 109 13t88 -34t53 -92q17 -70 -7.5 -171.5t-78.5 -211t-102 -192t-101 -162.5q51 -110 97 -184q50 -76 102 -144q144 199 191 257q166 203 340 288q56 27 116 45 q24 8 39.5 -9t11 -39.5t-27.5 -29.5q-78 -23 -150.5 -67t-122.5 -85t-114.5 -118t-95 -119t-95.5 -136q-23 -33 -35 -50q192 -204 494 -317q22 -9 26 -31.5t-11 -38.5t-38 -8q-278 105 -518 331q-159 -221 -313 -323q-42 -28 -99.5 -52t-123.5 -41t-126.5 -14t-106.5 24.5 t-66.5 79t-3.5 146.5zM60 65.5q-12 -98.5 35 -162t143 -26.5q146 56 257 158.5t228 257.5q-138 147 -217 299q-108 -143 -232 -242q-109 -84 -149 -127q-53 -59 -65 -157.5zM451 1095.5q6 -78.5 30 -157.5q17 -59 56 -162q170 264 233 543q13 58 5.5 92t-28 49t-49 14.5 t-59 -11.5t-57 -28t-43.5 -36q-52 -58 -73 -141.5t-15 -162z" />
<glyph unicode="(" horiz-adv-x="681" d="M88 530q30 216 76 373q104 454 375 631q17 8 30 2l6 10q12 17 28.5 17t27.5 -17t2 -35q-30 -57 -81.5 -116t-106.5 -118.5t-87 -111.5q-95 -157 -157 -403q-21 -127 -35 -279q-1 -21 -7 -97t-7 -118q27 -355 251 -661q42 -53 50 -64q19 -23 -1 -47q-18 -21 -38 -8 q-4 3 -8 8q-24 27 -41 53q-69 87 -105.5 137t-81 134t-61.5 160q-21 95 -27 192q-25 180 -2 358z" />
<glyph unicode=")" horiz-adv-x="681" d="M57.5 -497.5q-10.5 27.5 12.5 42.5q190 144 318.5 361t182.5 467q15 71 19 110q16 118 16 224v2q-3 289 -115.5 517t-340.5 414q-13 11 -11 25.5t15 22.5q2 16 12.5 25t28.5 3q43 -13 59 -20q14 -4 19.5 -15.5t2.5 -23.5q100 -84 177 -192.5t124 -226.5t73.5 -249.5 t25.5 -261.5t-21 -262q-144 -834 -559 -981q-28 -9 -38.5 18.5z" />
<glyph unicode="*" horiz-adv-x="985" d="M121.5 1215.5q-3.5 18.5 9 32t31.5 5.5q18 -7 136.5 -54.5t178.5 -76.5q-55 199 -137 324q-12 17 -1.5 33t28 16t30.5 -16q94 -143 152 -375q116 153 174 295q8 18 26.5 21.5t31.5 -9t5 -31.5q-58 -147 -192 -323q40 -26 108 -82q8 -6 23.5 -19.5t28 -23.5t24.5 -17l8 -4 q15 9 33.5 0.5t18.5 -28.5q0 -22 -8 -33.5t-21 -11.5t-28 4.5t-31.5 14.5t-28 18t-21.5 16q-52 42 -122 88l20 -119q0 -2 6.5 -39t11.5 -55q9 -12 9 -18q18 -7 16.5 -32t-23.5 -34q-1 0 -3 -1t-3 -1q-17 -7 -32 8q-24 26 -35.5 70t-18 104t-10.5 80q0 2 -1 6t-1 6 q-9 -11 -42.5 -52.5t-48 -59.5t-40 -51.5t-45 -61t-37.5 -55.5q-11 -17 -30.5 -15.5t-28 16t1.5 32.5q33 52 71 102t99 125t78 96q-101 55 -349 160q-18 7 -21.5 25.5z" />
<glyph unicode="+" horiz-adv-x="1228" d="M202 518.5q4 18.5 23 24.5q145 49 371 24q2 98 -7.5 170t-43.5 123q-15 24 6 41l-6 12q-11 26 13 43q23 17 38 -2q4 -4 6 -10q69 -159 72 -385q25 -3 83 -12t90 -13.5t79 -8.5t86 -5q20 -1 28.5 -17.5t0 -33t-28.5 -16.5q-39 1 -85.5 6t-80 9.5t-89 13t-83.5 12.5 q-1 -70 -9.5 -208.5t-9.5 -205.5q0 -20 -16.5 -28.5t-32.5 0t-16 28.5v10v6q0 62 3 187t3 188v31q-208 24 -354 -23q-19 -7 -31.5 7t-8.5 32.5z" />
<glyph unicode="," horiz-adv-x="569" d="M158 -198.5q-1 21.5 18 38.5q45 32 77.5 75.5t31.5 88.5q-4 0 -13.5 1t-13.5 1q-20 0 -32 15.5t-7 35.5q16 68 96 68q25 0 34.5 -18t2.5 -39q0 -5 4 -9q14 -44 9.5 -84t-29.5 -80t-54.5 -70t-64.5 -56q-20 -14 -39 -1.5t-20 34z" />
<glyph unicode="-" horiz-adv-x="681" d="M87 453q-9 30 7 45q3 3 6 4q69 34 143 36.5t184 -17.5t146 -23q16 -2 21.5 -27.5t-10.5 -36.5q-19 -15 -45 -22q-19 -5 -27 24q-16 3 -65 12t-70.5 12.5t-64 7.5t-70 1.5t-63 -10.5t-66.5 -23q-18 -9 -26 17z" />
<glyph unicode="." horiz-adv-x="569" d="M176 98q-3 23 17 47q9 12 15 21q-3 -4 -5 -8q24 31 57 39q6 2 23 2q16 0 24 -2q25 -6 47 -31v2q2 -5 13 -12q17 -14 24 -43q19 -51 -37 -99q-26 -18 -53.5 -23t-56.5 11q-33 23 -49 43t-19 53zM343 51l3 4v2q-1 -3 -3 -6z" />
<glyph unicode="/" horiz-adv-x="569" d="M-76 -33q35 76 82 160t79.5 138t103.5 154t92 129t111 148.5t100 132.5q10 14 31.5 41.5t31.5 42.5q216 327 311 598q0 13 15 21l30 18q12 11 27.5 9t24.5 -15q13 -21 14 -45.5t-9.5 -51.5t-22 -48.5t-29.5 -50t-25 -41.5q-130 -233 -299 -451q-68 -103 -199 -286 t-233 -336.5t-178 -299.5q-12 -16 -27.5 -16t-27 15.5t-3.5 33.5z" />
<glyph unicode="0" horiz-adv-x="819" d="M90.5 545.5q-4.5 70.5 0 185t9 169.5t14.5 163q3 37 5 55q10 102 33.5 186.5t65.5 151t98.5 99.5t137.5 25.5t177 -64.5q14 -9 18 -23q46 -46 60 -115q69 -363 28 -864q-3 -38 -8 -79.5t-15.5 -109t-26.5 -125.5t-37.5 -121.5t-53.5 -104.5t-70 -66.5t-89.5 -16.5 t-110.5 54q-61 47 -106 117.5t-71 140t-40 171t-18.5 172zM187.5 845.5q0.5 -41.5 2.5 -91.5q1 -34 0 -116t-1 -144t8.5 -145.5t25.5 -143.5t54 -113.5t90 -77.5q54 -19 96 -12t73.5 52t53.5 98t36.5 127t23 137.5t12.5 130.5t5.5 106t0.5 64q0 31 2 95t3.5 116.5 t-1.5 123.5t-10.5 127t-25.5 114.5t-45.5 98.5t-72.5 67.5t-104 31.5q-7 0 -15 4q-47 -10 -84 -48.5t-59 -89t-37 -123t-21.5 -133.5t-8.5 -137.5t-1.5 -118z" />
<glyph unicode="1" horiz-adv-x="614" d="M78 991.5q-13 19.5 0 40.5q32 60 80.5 125.5t80 101.5t103.5 114t92 100q8 9 19 12q5 17 23.5 22t35.5 -6t18 -33q12 -174 -12.5 -384.5t-52 -335t-89.5 -377.5l-42 -174q-30 -194 -68 -312q-8 -23 -29 -27t-37.5 11t-11.5 39q24 132 66 301q9 56 21.5 155.5t24.5 181.5 t28 154q34 153 48.5 223t31.5 194.5t18 225.5q-5 -6 -37 -40.5t-40 -43.5t-35.5 -39.5t-38.5 -44.5t-33 -41.5t-35.5 -47t-29.5 -45t-30 -50.5q-14 -20 -35 -19.5t-34 20z" />
<glyph unicode="2" d="M29.5 48.5q-7.5 20.5 3.5 35.5q47 72 129 182t141 193.5t121 186.5t99.5 212.5t45.5 220.5q3 40 13.5 121t15 145.5t0.5 120.5q-7 94 -77 98q-61 3 -129 -56q-70 -62 -77 -129v-15q10 -166 11 -197q1 -25 -19 -35.5t-41 0t-22 35.5q-1 27 -4 73t-4.5 75t-0.5 70.5t6.5 69 t18 60t32.5 54t51.5 40.5t74.5 29q41 12 85 8.5t81 -16.5t62.5 -45.5t29.5 -79.5q20 -231 -22.5 -469t-151.5 -418q-56 -91 -173.5 -252t-140.5 -194q-31 -45 -28 -65t31.5 -18t64.5 6q17 2 26.5 3.5t23.5 2.5t24 1q7 0 21 -0.5t17 -0.5t13 -0.5t11.5 -1t10.5 -1.5 t11.5 -1.5t12.5 -3l16 -4t20 -5.5q24 -6 28 -28t-11.5 -39.5t-39.5 -10.5q-54 15 -127.5 14.5t-128.5 -4.5t-129 9q-18 3 -25.5 23.5z" />
<glyph unicode="3" horiz-adv-x="819" d="M8 49q-18 26 5 47.5t50 7.5q111 -57 201 -50.5t166 65.5q27 21 53 47q49 54 82.5 125.5t47.5 146t4.5 147.5t-40.5 131t-93 95.5t-148 40.5q-21 -3 -35 14q-17 21 -4 47q45 82 145.5 236t143.5 231q62 108 -12.5 131t-184.5 -3q-21 -2 -31.5 -3.5t-26.5 -3t-28.5 -2 t-23.5 -0.5q-25 0 -35.5 20.5t0 41t35.5 20.5q84 -2 149 -1t144 -3t147 -16q19 -3 26 -23t-2 -37q-58 -114 -185 -316t-146 -235q94 10 164.5 -29t106.5 -109.5t48 -158t-4.5 -180.5t-56.5 -172q-18 -41 -54 -86q-77 -146 -208 -205q-74 -49 -141.5 -68t-138 5.5 t-120.5 101.5z" />
<glyph unicode="4" horiz-adv-x="665" d="M70.5 1139.5q-4.5 56.5 4 112.5t26 116t36.5 107.5t41 91.5q13 21 33.5 21t34 -20t2.5 -42q-31 -63 -49.5 -104t-36 -104t-15.5 -114q3 -88 80 -156q69 -61 142 -58q80 4 106 93q2 8 4 17q9 45 23 150.5t26 160.5q3 18 17 25t30 4q14 -2 23 -12t8 -27q-2 -35 -10.5 -212 t-11.5 -233t-11.5 -208t-16 -233t-19 -206.5t-25.5 -231.5t-31 -210q-3 -21 -22.5 -27.5t-38 5t-17.5 32.5q3 102 9.5 208.5t16.5 227.5t17 202.5t21 227.5t20 209q-75 -82 -225 -45q-64 15 -106.5 50t-61.5 80.5t-23.5 102z" />
<glyph unicode="5" horiz-adv-x="768" d="M23 86q-10 34 22 46t51 -15q68 -94 156 -84q43 13 59 20q75 39 143 135t107 195q37 236 17 399q-5 36 -14.5 67.5t-19.5 55.5t-28 49.5t-31 41t-38.5 38.5t-40 35t-46 36.5t-47.5 37.5q-40 33 -64 64t-32 73q-3 13 -8.5 38.5t-10 48.5t-8.5 44q-1 4 -2 12t-2 11 q-18 146 21 221q22 42 69 58t92 12t107 -11.5t92 -5.5q24 1 34 -18t0.5 -39.5t-32.5 -22.5q-15 -12 -32 -6q-30 8 -52 10q-78 8 -127 0q-85 -25 -88 -129v-33q2 -2 2 -8q7 -74 18 -119.5t32.5 -74t38 -41t56 -35t66.5 -41.5q41 -29 60 -43.5t48.5 -45t43.5 -61.5 q115 -250 24 -577q-10 -35 -24 -66q-72 -318 -328 -391q-70 -20 -124.5 -19.5t-96 35t-63.5 103.5z" />
<glyph unicode="6" d="M50 780.5q3 146.5 35 290.5t86.5 261t143.5 200t201 108q26 9 39 -10q4 -4 16 -20q15 -18 6.5 -40.5t-27 -27.5t-36.5 12q-17 20 -62 -12t-91 -85.5t-82 -101.5t-41 -59q-72 -157 -86 -413q-13 -268 6 -439q58 68 116 93q50 23 102 26.5t101.5 -17.5t83.5 -65 q55 -70 82 -165t8.5 -189.5t-92.5 -140.5q-8 -12 -20 -17q-132 -52 -235.5 19.5t-168.5 234.5q-4 8 -4 13q-43 114 -63.5 256t-17.5 288.5zM205 219q77 -214 244 -190q8 4 14 4q64 15 90.5 55.5t21.5 110.5q-9 163 -71 225q-57 58 -127 57.5t-129 -57.5q-16 -15 -25 -31 t-12 -37t-3.5 -33.5t1.5 -40t2 -38.5q0 -16 -6 -25z" />
<glyph unicode="7" horiz-adv-x="614" d="M62 1548.5q-4 23.5 11 38.5t38 6q42 -17 110 -24.5t167.5 -9.5t115.5 -3q22 -1 33 -16t6 -35q-41 -215 -97 -717q40 -5 52 -8q23 -7 27.5 -29.5t-11 -39.5t-39.5 -9q-3 0 -16.5 3.5t-20.5 3.5q-27 -256 -55.5 -442t-75.5 -361q-7 -29 -39 -29t-39 29l-6 22q-9 29 19 45 q27 116 48.5 254.5t32.5 231t27 250.5q-7 0 -34 -1.5t-39.5 -2t-33.5 0.5t-38 5q-24 6 -28.5 27.5t11 38.5t39.5 11q44 -10 131 -2q33 293 37 322q1 8 11.5 56t19.5 95.5t15 99.5t0.5 86.5t-25.5 37.5q-34 6 -152.5 7.5t-175.5 25.5q-22 9 -26 32.5z" />
<glyph unicode="8" horiz-adv-x="696" d="M51.5 207q-6.5 97 7 191t43.5 171q56 144 177 285q-17 17 -25 23q-86 66 -130.5 171.5t-34.5 219t77 198.5q35 44 93 61.5t114.5 8.5t106 -44t67.5 -87q25 -72 27.5 -139t-8.5 -115.5t-44 -106t-60 -92t-77 -92.5q43 -44 74.5 -80t60.5 -77t48 -79t33.5 -83.5t20.5 -94 t5 -106.5t-9 -125q-9 -73 -40 -141t-81.5 -118.5t-118 -64.5t-149.5 21q-81 35 -126 116.5t-51.5 178.5zM156 111q321 -216 370 49q25 98 25 192q-2 80 -17 143.5t-47 117.5t-65 93t-88 93q-68 -82 -112.5 -160.5t-63.5 -171.5q-46 -243 -2 -356zM170 1278 q-12 -101 26.5 -195t104.5 -141q4 -2 8 -6q4 -3 11.5 -10.5t11.5 -10.5l12 15q70 69 125 149q143 303 -215 355q-72 -55 -84 -156z" />
<glyph unicode="9" horiz-adv-x="768" d="M39 1319q9 53 39.5 101t78.5 83.5t108 61t124 36.5t130 7t122 -25q13 -7 18 -14q17 13 38.5 8t27.5 -29q38 -169 -6 -303q-11 -249 -41 -428q-58 -321 -70 -481q-2 -35 0.5 -215t9.5 -176q20 15 39 2.5t20 -34t-18 -38.5l-32 -25q-12 -7 -26.5 -4t-22.5 13 q-36 35 -55.5 89.5t-24 109t0.5 127.5t13.5 126t20.5 122.5t16 101.5q12 90 42.5 257.5t41.5 243.5l6 74q-43 -49 -104 -82q-61 -32 -113 -47t-103.5 -13t-99.5 28.5t-92 78.5q-54 64 -75.5 127.5t-12.5 116.5zM137 1376.5q-22 -60.5 8 -151.5q26 -74 69.5 -117.5t93 -52.5 t101 3.5t97.5 43.5t80 74q40 52 59 110q0 36 -1 108t-1 109q-11 -4 -25 2q-53 19 -125.5 24t-146 -8t-130.5 -48.5t-79 -96z" />
<glyph unicode=":" horiz-adv-x="409" d="M154 178q0 14 6 23l7 10q0 -1 -1 -4q12 16 24 18q4 2 11 2q8 0 10 -2q11 -3 22 -14l5 -4q8 -8 12 -21q6 -29 -19 -47q-27 -23 -47 -6q-28 18 -30 45zM154 805q0 14 6 20q2 4 5 8h2q-1 -1 -1 -2q10 16 24 19q4 2 11 2q8 0 10 -2q14 -4 22 -14l5 -5q8 -8 12 -20 q6 -29 -19 -47q-27 -23 -47 -6q-28 18 -30 47zM229 160z" />
<glyph unicode=";" horiz-adv-x="569" d="M143.5 -100.5q-5.5 20.5 8.5 41.5q116 125 127 223h-7q-23 -5 -39.5 10.5t-9.5 38.5q10 34 39 66q19 19 41 10t27 -31q29 -11 32 -41q12 -158 -153 -334q-17 -18 -38.5 -11t-27 27.5zM258 842q-9 25 4 45q4 15 17.5 23.5t28 7.5t25 -11.5t9.5 -27.5q-3 -12 0 -27 q1 -26 -26 -37t-44 8q-1 2 -7 9t-7 10z" />
<glyph unicode="&#x3c;" horiz-adv-x="1228" d="M244 403q-3 16 10 27q114 92 181 143.5t170.5 124.5t201 124.5t197.5 88.5q77 34 79 35q15 6 27 0q20 6 32.5 -8t8.5 -32t-23 -23q-48 -13 -108 -37q-348 -160 -649 -426q105 -38 206 -89.5t253 -141t196 -113.5q24 -10 15 -36q-9 -24 -32 -26q-9 -1 -18 4q-33 18 -55 33 q-83 44 -217.5 97.5t-251.5 107.5t-207 121q-13 10 -16 26z" />
<glyph unicode="=" horiz-adv-x="1228" d="M152.5 283.5q-10.5 20.5 0 40.5t35.5 20q153 -1 442.5 13.5t422.5 15.5q24 1 34 -19t0 -40.5t-34 -20.5q-134 -1 -423 -16.5t-442 -14.5q-25 1 -35.5 21.5zM153 700.5q-10 20.5 0.5 40.5t34.5 19q121 -1 406 -17.5t448 -13.5q2 2 11 2h18h2q23 -2 32.5 -21.5t0 -39 t-32.5 -21.5h-2q-164 -6 -464 12t-419 19q-25 0 -35 20.5z" />
<glyph unicode="&#x3e;" horiz-adv-x="1228" d="M37 19.5q-4 15.5 8 29.5q162 142 357.5 250.5t435.5 206.5q-86 31 -146 61q-326 99 -565 230q-16 10 -15.5 28t13.5 29q3 13 15 21t28 4q89 -25 182 -67t208.5 -101t174.5 -86q17 -5 98.5 -27t126.5 -33q13 -4 19.5 -16.5t3.5 -24.5q8 -12 2.5 -27.5t-22.5 -21.5 q-13 -5 -63 -24t-77 -31q-57 -32 -174.5 -96.5t-188 -103.5t-168 -97t-177.5 -111q-1 -1 -5.5 -4.5t-5.5 -5.5l-2 2q-2 -1 -5 -3t-5 -3q-15 -11 -32 -2.5t-21 24z" />
<glyph unicode="?" horiz-adv-x="796" d="M12 -354q-3 37 25 59q8 4 14 4q2 4 10 12q23 23 48.5 6.5t19.5 -44.5q8 -28 -18 -43l-17 -7q-4 -6 -14 -16q-19 -21 -43.5 -9t-24.5 38zM87 1273q-2 11 3 23q23 52 77 106.5t122 98.5t144 67.5t142.5 21t119.5 -48.5t73 -134q36 -166 -35 -320l-4 -6q-27 -68 -72 -131.5 t-93 -109.5t-102 -97t-100 -95.5t-87.5 -104t-63.5 -123.5q-3 -22 -12.5 -89.5t-16.5 -105.5q-5 -21 -24.5 -26.5t-37.5 5.5t-18 32q-3 150 43 266q23 109 68.5 189t140.5 147q6 4 35 24t38 26.5t35 25.5t37.5 29t33.5 28t35 31.5t29.5 31.5t29.5 35.5t24 36.5q31 94 33 158 q-58 172 -147 219l-33 6q-15 0 -25 10q-64 3 -135 -45l-94 -68q-63 -54 -90 -131q-12 -29 -42 -18q-27 9 -31 36z" />
<glyph unicode="@" horiz-adv-x="1638" d="M143 693.5q8 74.5 35 142.5q64 160 188 280t274.5 180t325 53.5t330.5 -89.5q130 -69 178 -180.5t48 -278.5q0 -7 1 -67.5t0.5 -97t-5.5 -100t-15 -103.5t-31 -79t-51 -55q-66 -34 -119 -34t-87.5 25.5t-58.5 74t-35 103t-15 120.5q-131 -246 -352 -256q-6 -4 -19 -4 t-37 4h-4q-40 2 -89.5 17.5t-99.5 44t-89 64t-57 83.5t-5 98q27 92 150 178q126 88 254 105q142 19 188 -69q24 -46 17 -118q-3 -24 -24 -34t-40.5 0t-17.5 34q5 42 -11 72q-14 -4 -28 2q-50 21 -116 6t-128 -54.5t-86 -80.5q-50 -84 -3 -154.5t142 -101.5q66 -14 134 -8 t104 33q95 69 147 173.5t92 254.5q6 24 27.5 28.5t39 -11t11.5 -38.5q-37 -160 -30 -264q1 -28 3 -46.5t7.5 -52t15.5 -55.5t25.5 -44.5t41 -32t58.5 -5.5q22 3 39.5 15.5t28 34.5t18 41.5t11.5 49t5 43.5t3 38q6 75 8 130.5t-2.5 122.5t-17.5 116.5t-39.5 101t-65.5 87.5 t-99 65t-137 44q-102 17 -203 14t-200 -36.5t-181 -86.5t-145.5 -136t-93.5 -185q-31 -105 -37 -189.5t22 -174t99 -164.5q255 -270 510 -185q23 8 37.5 -8.5t10 -38.5t-27.5 -30q-75 -25 -150 -26t-141.5 19.5t-128.5 57t-111.5 88.5t-90.5 112.5t-66 130.5t-36 141 t-3 145.5z" />
<glyph unicode="A" horiz-adv-x="880" d="M104 -66q-3 6 -3 13t3 14v4q2 30 19.5 279.5t23.5 380.5q-10 11 -9 27.5t12 27.5q-9 96 -12 140q-4 44 -8 124q-4 65 -4 121v23q1 64 7 126q20 201 189 201h16q45 13 91 13q37 0 75 -8q86 -19 172 -72q188 -118 188 -390q0 -84 -18 -182q-19 -215 -110 -438.5 t-195 -345.5q-23 -27 -51 -4t-13 53q181 346 252 571q19 90 24 176q2 31 2 61q0 54 -6 107q-9 82 -38 149.5t-75 119.5t-119.5 81t-168.5 29q-85 -30 -102 -145q-7 -55 -9.5 -110t-2.5 -146t-1 -111q-4 -86 -4 -129q62 -1 120.5 -11.5t116 -33.5t98 -65.5t52.5 -100.5 q7 -35 -23 -46.5t-50 16.5q-19 25 -81 69q-62 43 -126 68q-27 11 -48 11q-27 0 -42 -19q-8 -10 -21 -17q11 -141 13 -215v-29q0 -67 -9 -161q-11 -116 -43 -211q-2 -10 -2 -33q-2 -24 -23 -34q-10 -5 -20.5 -5t-20.5 5q-19 10 -18 32q0 14 2 20z" />
<glyph unicode="B" horiz-adv-x="819" d="M44 118q-1 37 -1 79q0 73 4 159q6 119 6 177v16q0 29 -1.5 111t-1.5 123.5t1 108t6 122.5t13 110q7 48 20 93t34.5 89.5t50.5 76t67 53.5q37 21 81 20h5q46 -1 104 -22q164 -67 262 -211q78 -116 79 -250q0 -33 -5 -68q-22 -149 -96.5 -245t-200.5 -166q211 -11 244 -195 q3 -16 3 -31q0 -29 -10 -55q-16 -40 -44.5 -69.5t-76 -55t-90 -42t-98.5 -31t-89 -21.5t-74 -14q-32 -6 -47 24q-13 27 5 44q7 7 19 9q64 11 92.5 17t84 20t96 32.5t73.5 43.5q74 57 97 102q12 23 12 41q0 16 -10 28q-22 24 -61 42t-90.5 21.5t-87 7t-50.5 -1.5 q-52 -5 -131 -23q-25 -5 -39.5 11t-10 37t26.5 30q12 5 35 14q41 16 62.5 25t61.5 26.5t63 30t57 33.5t55 39.5t46 44.5t40 52.5t27.5 60t17.5 69.5q6 42 6 84q0 70 -16 138q-25 110 -101 175q-52 45 -117 68q-55 20 -108 20q-8 0 -18 -1q-62 -4 -110 -51.5t-60 -133.5 q-20 -131 -24 -304q-2 -81 -1 -153q0 -82 2 -153v-15q0 -56 -6 -170q-5 -87 -5 -161q0 -37 2 -69q4 -100 26 -183q7 -23 -10 -39q-13 -12 -29 -13q-5 -1 -10 1q-22 4 -29 28q-24 88 -28 190z" />
<glyph unicode="C" horiz-adv-x="819" d="M88 743q40 198 150 334q129 159 251 223q61 32 115 33q55 0 103 -33q103 -20 131 -141q16 -37 16 -72v-17q0 -69 -29 -112q-21 -31 -41 -49q-6 -6 -15 -12.5t-9 -1.5q-6 -6 -10 -8l-7 -6q-23 -12 -46 5t-13 42q6 16 23 26q2 2 4 2l8 7h2q44 28 51 86q-46 146 -131 176 q-58 -4 -130 -42t-140 -93q-94 -112 -148 -226q-23 -97 -23 -198v-8q1 -106 23 -201q16 -59 23.5 -85t26 -77t41.5 -86.5t53 -61.5q63 -55 99 -78t50.5 -19t20.5 16t19 24t36 8q39 -8 50 -14.5t32 -36.5q13 -20 13 -35q0 -34 -65 -47q-38 -8 -83 -8q-66 0 -148 17 q-102 21 -131 51q-122 126 -167 323q-24 105 -24 210q1 92 19 185zM199 256q39 -107 98 -158q-56 59 -98 158z" />
<glyph unicode="D" horiz-adv-x="1024" d="M87 56v24q1 49 7 82q8 41 31 123t29 108q43 179 82 387q4 44 11 135t12.5 147t18 132t31.5 135v21q3 21 21 32q23 42 70 56q25 7 52 8q24 0 48 -6q52 -12 106.5 -35t97.5 -51.5t66 -53.5q147 -161 194 -387q18 -86 17 -168q0 -136 -47 -264q-45 -115 -112.5 -198.5 t-174.5 -167.5q-55 -44 -119 -71.5t-140.5 -52.5t-127.5 -50q-23 -11 -43 4t-18 37q-2 -5 -5.5 -16.5t-5.5 -16.5q-9 -24 -36 -29q-5 -1 -9 -1q-20 0 -30 20q-24 52 -26 117zM203 -4q8 12 16 14q43 21 108.5 49t112.5 48.5t105.5 50t102 61t86 73t73 95t49.5 117.5 q29 101 35 212q1 26 1 52q0 85 -14 170q-20 111 -80.5 206.5t-156.5 149.5q-63 35 -111 40q-9 1 -16 1q-36 0 -61 -18q-30 -22 -48 -55t-30 -82q-2 -25 -10 -71.5t-9 -57.5q-1 -13 -4.5 -48t-5.5 -51q-7 -54 -23.5 -161t-23.5 -162q-10 -68 -23 -200.5t-29 -236.5t-44 -196z " />
<glyph unicode="E" horiz-adv-x="665" d="M64 12q-1 18 -1 33q0 26 3 46q5 31 19 89.5t19 89.5q37 212 37 422q0 66 -4 131q-1 26 -6 100.5t-7 116.5v30q0 34 2 80q3 70 14 116t36 96.5t62 85.5q35 34 97 38q10 1 21 1q52 0 108 -17q68 -20 124 -43.5t98 -48.5q19 -13 19 -33q1 -26 -19 -38q-18 -10 -41 0 q-75 45 -147 65q-49 13 -92 13q-22 1 -42 -3q-62 -10 -103.5 -65t-45.5 -152q-2 -107 -3 -130v-11q0 -31 4 -118q4 -106 5 -130v-37h4q38 5 139.5 24.5t159.5 24.5q22 2 34 -16t6 -38.5t-27 -24.5q-10 -2 -41 -6.5t-43 -6.5t-38 -7t-41 -10.5t-36 -13t-38.5 -17.5t-35.5 -23 q-4 -12 -4 -17q-17 -160 -35 -278l-7 -42q-20 -116 -19 -184q0 -33 4 -55q16 -71 75 -71q28 0 66 16q105 44 166 61q20 7 36.5 -8.5t15.5 -34.5t-19 -30q-15 -6 -50 -25t-69 -36t-76.5 -36.5t-81 -28.5t-74.5 -10h-3q-33 0 -60 17q-28 18 -43 55q-19 46 -22 94z" />
<glyph unicode="F" horiz-adv-x="833" d="M80 18q0 11 2 15q102 402 102 807q0 53 -2 106q-1 66 -4 128v20q0 54 13 112q16 68 55 113q50 59 158 93t228 40q45 2 89 2q72 0 142 -6q112 -9 184 -31q23 -7 27 -29l2 -10q0 -16 -12 -29q-16 -17 -40 -10q-96 29 -218 29q-113 0 -247 -25q-88 -17 -142.5 -36t-88.5 -52 v-14q0 -185 -15 -500q70 18 93 21q2 0 6 1t6 1h2q25 3 35 -16t-0.5 -40.5t-34.5 -25.5q-57 -6 -111 -31q-2 -47 -7 -140t-7 -140q-4 -75 -8 -117.5t-15.5 -104t-34.5 -111t-59 -93.5q-10 -12 -26 -12h-2q-18 1 -29 12q-17 17 -35 41q-9 10 -9 20q0 6 3 12z" />
<glyph unicode="G" horiz-adv-x="921" d="M82 370q-3 45 -3 89q0 75 9 152q15 123 55 229.5t93 173.5q68 84 167.5 166.5t212.5 141.5q64 34 120 34q42 0 80 -19q106 -54 106 -215q0 -21 -18 -30q-19 -10 -40 0t-24 34q-16 140 -113 140q-20 0 -43 -6q-115 -29 -267 -180q-127 -125 -182 -233q-12 -26 -18 -46 q-18 -66 -31 -157q-12 -82 -12 -181v-23q2 -113 24 -204.5t84 -151.5q56 -52 139 -52q11 0 23 1q69 6 129 43q12 10 37 35q-8 23 8 41q82 94 91 208l-2 9q-13 30 -41.5 83t-36.5 70q-2 3 -10.5 19.5t-12 23.5t-10.5 22.5t-9 25.5t-4 23t0 24.5t7 21.5q26 51 71 51q8 0 18 -2 q58 -12 113 -54.5t78 -82.5q37 -70 37 -145q0 -25 -4 -51q-17 -103 -81 -196t-158 -157q-60 -60 -115 -84q-10 -5 -19 -5q-18 0 -32 17q-40 -9 -78 -9q-79 0 -148 40q-83 49 -132 149t-58 217z" />
<glyph unicode="H" horiz-adv-x="860" d="M56 164v46v32q0 26 3 83.5t4 73.5q5 138 37.5 320t62 360t30.5 320q0 4 2 6q-1 18 13 31q13 12 29 12h3q18 -2 28 -21q29 -54 36 -137q4 -46 4 -84q0 -30 -2 -55q-6 -56 -22.5 -162.5t-19.5 -128.5q-12 -82 -18 -174q285 -4 420 -94v8q1 28 1 61q0 121 -9 319 q-9 212 -9 332v40l-4 8q-12 21 1.5 40.5t34 20t34.5 -19.5q1 -3 4 -8.5t4 -8.5q3 -3 6 -12q28 -60 44 -125t20 -141t4 -127.5t-5 -145t-6 -133.5v-21q0 -40 2 -106q4 -85 4 -155q0 -6 1 -12q1 -65 -5 -138q-6 -80 -28.5 -147t-61.5 -111q-13 -15 -38 -8.5t-29 27.5 q-10 51 -10 111q1 2 1 6q0 64 3.5 102.5t15 117.5t14.5 105q-103 18 -198 47q-41 11 -115.5 26.5t-105.5 22.5q-8 -124 -16 -355t-13 -331q-1 -21 -15 -31q-11 -8 -24 -8h-7q-18 2 -30 19q-20 30 -35 65t-22.5 77.5t-12.5 75.5t-5 85zM133 154q1 35 2 105.5t2 105.5 q-6 -70 -7 -135q1 -39 3 -76zM698 203q17 78 17 182q-15 -112 -17 -182z" />
<glyph unicode="I" d="M61 75q12 5 25 3q64 -12 133 -15q6 110 29 238.5t46.5 218t65 236.5t60.5 221q21 233 61 278q0 7 2 11q-25 3 -32 28q-25 2 -75.5 7t-89.5 7.5t-73 2.5q-25 1 -35.5 21.5t0 40.5t35.5 20q47 -1 150 -11.5t155 -11.5q20 10 39 0q69 3 133 21q7 2 13 2q15 0 25 -12 q12 -14 13 -30q0 -4 -1 -9q-4 -22 -27 -29q-67 -20 -140 -23q-7 -15 -10 -28q-16 -99 -47 -228q-5 -39 -13.5 -115.5t-16.5 -136.5t-19 -114q-74 -342 -162 -609q41 0 122 2t122 2q24 0 34 -20t0 -40t-34 -21q-33 0 -118 -1t-129.5 -1t-113 5t-125.5 15q-29 5 -29 32 q0 30 27 43z" />
<glyph unicode="J" horiz-adv-x="563" d="M-107 -331.5q0 19.5 21 34.5q82 47 148.5 122t109.5 153.5t78.5 182.5t55 186t38.5 188q3 16 15 75t21 108.5t15 98.5q-5 168 -45 406q-2 10 -5 29q-5 29 -7.5 40.5t-9 25t-14 14.5t-23 1t-36 -6t-52.5 -16q-4 -1 -6 -2q-23 -8 -38.5 8.5t-11 38.5t28.5 30q84 26 156 39 q12 10 25 10q7 0 14 -3q4 0 12 1t12 1h6q16 0 25 -14q10 -17 8 -38q-1 -4 -2 -12.5t-2 -13.5q65 -116 65 -310q0 -96 -16 -212q3 -36 3 -77q0 -24 -1 -50q-20 -288 -96 -504q-34 -98 -69.5 -175t-86.5 -155.5t-120 -139.5t-154 -100q-10 -4 -19 -4q-12 0 -23 7 q-20 13 -20 32.5z" />
<glyph unicode="K" horiz-adv-x="778" d="M80 -43q0 9 1 28t1 29q-3 10 0 23q6 221 46.5 686t43.5 709q0 6 4 18l-12 47q-9 25 13 41q12 9 25 9q10 0 21 -5q36 -20 59.5 -58.5t33.5 -91.5q8 -52 12 -104q1 -22 2 -46q0 -34 -3 -72q-5 -65 -10.5 -111t-13.5 -103t-10 -77q-9 -81 -31 -213q198 132 302 334 q98 191 98 421v27q-1 24 19 34t40 0t20 -34v-30q1 -258 -115 -472q-122 -226 -352 -368q65 -29 119.5 -84.5t89.5 -114.5t67 -144t48.5 -144.5t36.5 -143.5q5 -23 -13 -39q-14 -12 -31 -13q-5 0 -9 1q-22 4 -27 28q-50 210 -87 304q-88 224 -232 280q0 -7 -5 -27 q-11 -287 -63 -444l-6 -78v-16h-4q-9 -25 -38 -25.5t-38 25.5h-2q0 4 2 6q-2 2 -2 8z" />
<glyph unicode="L" horiz-adv-x="819" d="M3 64q5 40 52 67q41 25 89 29q15 1 29 2q32 0 61 -7q42 -10 96 -32q19 29 30 65q79 174 105 357q11 76 12 194t1.5 220.5t11 210.5t49 201.5t106.5 156.5q11 11 23 11q7 0 15 -4q20 -10 23 -31.5t-14 -41.5q-44 -41 -69 -101t-31 -123q-6 -62 -8 -134q-1 -26 -1 -51 q1 -45 3 -85q1 -21 1 -42q0 -42 -5 -82q-29 -331 -90 -541q-23 -97 -91 -215q133 -66 184 -82q55 -17 102 -17q38 0 71 11q22 8 38 -8q15 -14 15 -33q0 -27 -25 -35q-48 -16 -94 -18h-10q-42 0 -88 13q-52 15 -82 27t-93 41q-13 6 -20 9q-21 9 -47 22q-80 -108 -169 -108h-5 q-41 1 -84 25q-44 25 -70 57q-22 27 -22 59q0 7 1 13zM129 68q39 -9 74 -9q17 0 33 2q-39 10 -73 10q-18 0 -34 -3z" />
<glyph unicode="M" horiz-adv-x="1187" d="M78 10q12 94 14 140v63q0 6 4 14q1 42 1 179t4.5 228t17.5 179q7 47 16 173t26 218t54 164q13 22 33 21.5t33 -17.5q26 50 57 92q14 17 37 19h4q20 0 31 -19q20 -44 26 -100q5 -41 4 -76v-28q-1 -16 -1 -32q0 -34 3 -71l7 -78q67 -268 148 -407q57 -99 109 -99 q28 0 54 29q2 2 5 6t5 6q61 76 106 180.5t87.5 224.5t83.5 195q12 23 38.5 19t34.5 -29q26 -90 26 -200v-9q0 -106 -12 -234q-11 -123 -10 -192v-12q1 -56 7 -140.5t11 -146.5q3 -38 3 -83q0 -27 -1 -57q-3 -78 -18 -142q-6 -24 -28 -29t-39 10q-26 21 -44 54.5t-26.5 64.5 t-13.5 77.5t-5.5 72t-0.5 69.5v38q0 58 2 117q3 79 9.5 192.5t8.5 154.5q-111 -279 -239 -315q-39 -15 -76 -21q-13 -1 -25 -1q-39 0 -73 12q-44 16 -73.5 45.5t-52 77.5t-36 97t-22.5 115t-13 120t-6 124q-6 47 -15 135t-14 125q-10 -22 -27 -66.5t-24 -60.5 q-5 -101 -38 -327.5t-34 -346.5v-11q1 -55 9 -169q5 -71 5 -130q1 -47 -3 -86q-8 -89 -44 -171q-8 -20 -30 -20q-4 1 -6 1q-26 2 -35 23q-17 3 -29 17q-10 11 -11 26q0 4 1 8zM162 422q0 -58 4 -168q0 54 -4 168zM1057 145q5 -24 8 -32q0 25 2 39q-2 -2 -5.5 -4t-4.5 -3z " />
<glyph unicode="N" horiz-adv-x="1024" d="M47 -20v40q-1 92 3 186q4 116 14.5 276t13.5 225q3 56 3 106q-1 25 -1 48q-1 18 0 38q0 54 5 117q7 85 28 151q5 23 33 29l10 2q20 0 30 -20q32 -68 138.5 -262t150.5 -306q15 -38 55 -189.5t76 -221.5q29 -49 49 -74q8 -11 29 -27q20 -16 38 -16q53 0 86 140 q18 72 30 195l2 21q42 325 45 674q0 24 20.5 34t41 0t20.5 -34v-33v-73v-81q0 -324 -29 -507q-46 -343 -135 -414l-15 -24q-9 -14 -25 -19t-30 4q-30 17 -49 33q-70 30 -123 125q-50 69 -90.5 162t-69.5 183.5t-59.5 181.5t-76 180t-103.5 155q-5 -58 -5 -165q1 -11 1 -22 q0 -14 -1 -27q0 -103 -3 -157q-25 -381 -25 -602v-32q-1 -26 -21 -36q-10 -5 -20 -5l-20 5q-20 10 -21 36z" />
<glyph unicode="O" horiz-adv-x="870" d="M63 540q8 140 52.5 282t117 257t179 194.5t227.5 94.5q6 3 14 3q4 0 9 -1q17 -3 24 -20q66 -77 101 -189.5t40 -230.5q1 -30 1 -60q0 -91 -11 -188q-15 -129 -43 -239.5t-65 -206.5q-19 -50 -51.5 -98.5t-74 -89.5t-91.5 -66q-48 -25 -98 -31q-10 -1 -20 -1q-40 0 -83 20 q-53 24 -98 79q-73 89 -105 220q-26 105 -27 216q0 27 2 55zM144 440q4 -134 44 -231q19 -46 58 -89q40 -42 88 -70q38 -22 80 -21q12 -1 24 1q56 8 99 60q64 75 96 170.5t53 224.5q4 21 14 76t14.5 82.5t12.5 82t10.5 87.5t4.5 84q1 21 2 40q0 27 -2 47q-4 36 -10.5 81 t-19 80t-32 72t-45.5 69q-115 -17 -212.5 -102.5t-157.5 -209.5t-93 -262q-29 -122 -29 -240q0 -16 1 -32z" />
<glyph unicode="P" horiz-adv-x="778" d="M52 226v8q0 28 4 74q4 52 6.5 75.5t9 83.5t8.5 78q12 103 15.5 302t13.5 294q22 185 147 273q80 56 181 56q57 0 120 -18q117 -32 171 -106q50 -68 49 -149v-15q-5 -90 -45.5 -192t-106 -192t-140.5 -160.5t-141 -100.5q-22 -11 -42 2.5t-20 33.5t21 33l12 6q-4 27 19 41 q69 43 143.5 126t130 185t58.5 200v7q0 93 -72 162q-6 6 -8 10q-47 24 -99 24q-1 -1 -2 -1q-53 0 -106.5 -28.5t-96.5 -69.5t-71.5 -98.5t-30.5 -116.5q-2 -57 -2.5 -160t-3.5 -187.5t-12 -160.5q-13 -93 -18 -138q-4 -45 -10 -123q-3 -36 -3 -69q-1 -39 3 -74 q6 -65 24 -129q6 -23 -12 -38q-13 -12 -29 -12q-5 0 -10 2q-22 4 -29 28q-10 39 -16 77.5t-8 82.5t-2 74z" />
<glyph unicode="Q" horiz-adv-x="921" d="M78 363q2 90 12.5 180t28.5 165t39 132q22 61 45 112.5t62.5 118.5t82 112t102.5 75q52 26 108 26h15q156 -11 251 -115q70 -76 70 -177q0 -37 -9 -77q-5 -16 -19 -26q15 -97 15 -194q0 -235 -88 -476q-28 -74 -82 -149q25 -16 82 -53t90.5 -57.5t83 -47t97.5 -42.5 t97 -24q24 -4 29 -25q1 -5 1 -10q0 -16 -11 -29q-12 -16 -31 -16q-4 0 -8 1q-62 10 -129.5 39.5t-113.5 57.5t-120 76.5t-112 71.5q-124 -144 -262 -144q-13 0 -25 1q-83 8 -143.5 52.5t-93 112t-48.5 153.5q-16 79 -16 161v15zM162 469v-33q0 -212 49 -330q36 -86 103 -122 q45 -25 93 -25q25 0 50 7q75 18 137 85q-113 55 -219 55q-42 0 -82 -8q-24 -5 -39.5 13t-11.5 40t28 27q51 10 99 10q45 0 89 -9q88 -19 183 -68q120 173 156 423q12 86 12 165q0 152 -45 280q-53 140 -137 140q-63 0 -144 -79q-120 -117 -244 -359q-12 -23 -22 -44 q-11 -25 -37 -21q-15 -74 -18 -147zM252 860q75 115 160.5 208t165.5 130q-8 1 -15 1q-77 0 -160 -83q-57 -60 -98 -137q-42 -92 -53 -119z" />
<glyph unicode="R" horiz-adv-x="839" d="M60 168q3 92 13 162t31 164q22 99 42 305t44 309q47 210 178 306q76 55 174 56q72 0 158 -30q106 -36 160 -102t54 -145q0 -76 -30 -160q-32 -85 -91 -166t-129.5 -150.5t-143.5 -118.5q3 -8 8 -16q41 -48 82 -136q55 -84 72 -124q46 -107 100 -324q6 -20 -8 -36t-34 -16 h-2q-20 0 -29 21q-19 37 -38.5 82.5t-31.5 77t-33 87.5t-31 81q-65 150 -69 158q-2 4 -29 53q-9 26 -31 37q-55 -46 -131 -49q-18 -1 -28.5 10.5t-12.5 27.5q-1 11 -1 21q-1 61 41 89q30 19 66 19q23 0 48 -8q9 15 28 19t33 -8q92 54 166.5 130.5t116.5 163.5q39 82 39 155 q0 67 -33 127q-51 91 -153 123q-43 14 -85 14q-64 0 -123 -34q-122 -71 -149 -256q-12 -70 -24 -224t-27 -234q-7 -35 -25.5 -117t-27 -127t-17.5 -113q-8 -58 -8 -111q0 -9 1 -17q2 -60 12 -119q5 -24 -12.5 -39.5t-39 -11.5t-26.5 28q-14 63 -14 139v27z" />
<glyph unicode="S" horiz-adv-x="768" d="M117 713q-25 82 -25 156q0 153 105 278q31 55 68.5 105.5t83 96.5t91.5 72t92 30h10q41 0 76 -28q19 -16 15.5 -39.5t-21.5 -33.5q-3 -9 -16 -19q-15 -8 -69 -34.5t-81 -40.5t-67 -40t-68 -51q-45 -75 -75 -149q-28 -70 -27 -103q0 -59 21 -127q17 -54 39 -90t59 -70 t68.5 -55t80.5 -51q11 -7 17 -10q123 -35 159 -96q16 -26 19 -49q11 -23 11 -49q0 -156 -414 -387q-12 -6 -17 -9q-10 -5 -20 -5q-18 1 -32 19q-22 28 3 52q19 17 53.5 44t65.5 51t68 55t63 58.5t48 58t26 58.5t-6 54t-45.5 49.5t-94.5 42.5q-81 25 -159.5 100.5 t-104.5 155.5z" />
<glyph unicode="T" d="M20 -124q-10 13 -10 24q0 14 13 28q47 47 84 111.5t65 148t44.5 145.5t38.5 161t32 137q2 8 35 119q40 232 40 512v2q-2 2 -2 4q-138 18 -290 18q-25 0 -35 20t0.5 40t34.5 20h14h31q9 12 28 12q12 0 71 0.5t88.5 0.5t91 -3t98.5 -8.5t89.5 -17t86.5 -27.5t66 -41t50 -57 q5 -10 5 -19q1 -14 -9 -28q-16 -24 -41 -13l-18 6q-4 0 -14 5q-40 16 -60 22q-75 28 -190 53q15 -50 16 -113v-8q1 -60 -13 -135q-14 -80 -25.5 -128t-37 -138.5t-28.5 -103.5q-18 -81 -66 -283q-7 -26 -17.5 -74t-18.5 -79.5t-21 -75.5t-28 -76t-35.5 -66.5t-48.5 -60.5 t-62 -45q-12 -6 -22 -6q-17 0 -30 17z" />
<glyph unicode="U" horiz-adv-x="1024" d="M162 1047q26 208 63 309q3 13 17 20q6 23 28 27q5 1 9 1q16 0 29 -12q16 -15 9 -38q-59 -219 -84 -389q-6 -73 -6 -152q0 -132 17 -278q8 -78 12.5 -114t17 -106t33 -122t49.5 -93q37 -50 90 -78q46 -24 92 -25q7 0 13 1q76 31 127 94q54 95 87.5 207.5t48 241 t19.5 229.5t8 249t7 224q1 22 19 33t37 5t24 -28q30 -144 30 -319q0 -62 -4 -128q-14 -252 -82 -470q-84 -412 -309 -422l-8 -2q-49 -18 -101 -18q-24 0 -49 4q-79 12 -129 65q-175 184 -175 566q0 225 61 518z" />
<glyph unicode="V" horiz-adv-x="921" d="M-37 1120q-5 10 -5 19q0 12 8 23q14 20 34 20t33 -21q33 -69 103 -189.5t131.5 -224t126 -239t98.5 -248.5q35 64 102.5 196t106.5 203.5t108.5 172.5t146.5 182q24 24 54 2q18 -13 18 -29q0 -11 -8 -22q-311 -454 -500 -832q11 -62 11 -119q0 -144 -70 -252 q-11 -18 -31 -20h-6q-16 0 -27 12q-47 47 -47 124q0 17 2 36q-10 13 -4 31q40 107 74 178q-1 3 -2 9t-2 9q-50 188 -154 404q-44 92 -148.5 282t-152.5 293z" />
<glyph unicode="W" horiz-adv-x="1402" d="M109 1223l4 -2q-4 58 -4 75q0 21 25 21q8 1 17 -1q42 -8 62 -35q4 -6 6 -11q63 -213 123 -776q23 -158 23 -248l6 -78q2 -1 4 -1q17 0 55 48q44 55 92 126t100.5 133t79.5 65q9 1 17 1q36 0 62 -18q32 -22 59 -80t98.5 -178t120.5 -162q5 4 8 15q47 114 74 253.5 t32 271.5q4 94 4 167q0 29 -1 55q-2 90 -9 168q-12 21 -5 47.5t30 32.5h4q30 9 47 -25q23 4 35 -26q29 -67 30 -216v-14q0 -141 -19 -293q-20 -158 -53 -306t-67 -218q-33 -63 -92 -63h-6q-10 -2 -19 -2q-28 0 -52 18q-34 25 -70 74q-48 62 -115 154q-38 52 -52.5 73 t-39 39.5t-31.5 20.5t-33 -14t-39 -31.5t-53 -62.5q-30 -34 -47 -54q-17 -19 -54 -76t-67 -82q-20 -18 -41.5 -1.5t-21.5 46.5q-30 24 -53 156q-8 50 -76.5 424.5t-87.5 531.5q-2 18 -10 58z" />
<glyph unicode="X" horiz-adv-x="948" d="M-10 -77q-11 13 -11 25q0 14 15 27q134 118 247.5 261t245.5 339q-11 31 -36.5 101.5t-39 107t-40 100.5t-47.5 102t-54.5 90.5t-67.5 87.5t-79 71t-96 61q-23 13 -20.5 36.5t24.5 33.5q5 16 21 22q6 3 14 3q10 0 20 -5q76 -47 142 -107t113.5 -117.5t95.5 -136 t78.5 -139t72.5 -149.5q90 169 172 271q15 18 35 14q83 111 151 190q17 18 38.5 11t27.5 -27q2 -6 2 -12q0 -14 -10 -29q-146 -170 -373 -512q72 -157 138 -272t153 -215q14 -16 9 -38t-21.5 -30t-37.5 4q-235 160 -340 381q-54 -100 -95.5 -167t-102 -147t-133 -141.5 t-158.5 -107.5q-10 -5 -20 -5q-18 0 -33 18z" />
<glyph unicode="Y" horiz-adv-x="909" d="M-10 1008q17 10 39 -2q122 -86 168 -207q4 -10 23.5 -61.5t33.5 -85t40 -85t49.5 -82t55.5 -52.5q28 -19 56 -19h8q142 240 411 626q0 3 1.5 8t1.5 7q6 24 27 29q5 1 10 1q16 0 29 -12q13 -11 13 -27q0 -6 -2 -12q-37 -169 -157 -370q-74 -152 -135 -222q-27 -45 -35 -61 q-83 -147 -134 -232t-132 -206t-160 -215q-11 -12 -25 -12q-11 0 -24 7q-31 17 -19 46q109 259 283 567q-68 10 -120.5 63.5t-86.5 129t-64 153t-70 149.5t-87 105q-18 13 -18 34q0 27 20 38z" />
<glyph unicode="Z" horiz-adv-x="1075" d="M-41 944q47 131 145 182q-2 17 8.5 30.5t30.5 14.5q13 0 58 5q15 0 26 -11h28q69 -1 171 7q122 10 215 17q39 3 83 3q60 0 128 -6q118 -10 211 -43q10 -3 16 -15q5 0 13 -4q18 -6 26 -23q3 -8 3 -16q0 -10 -5 -20q-65 -114 -158 -209.5t-238.5 -214t-201.5 -170.5 q-31 -27 -68.5 -67t-81.5 -93t-70 -107q-23 -47 -23 -81q0 -5 1 -10q21 -20 59.5 -31.5t76.5 -14.5q22 -2 50 -1h39q52 2 83.5 6t75.5 9.5t49 6.5q29 3 37.5 -30.5t-17.5 -45.5q-37 -16 -103 -30.5t-148 -20.5q-32 -2 -61 -2q-47 -1 -90 5q-69 10 -113 50q-37 34 -37 88 q0 10 1 21q0 2 1 6t1 6q-10 25 -12.5 50t4.5 50.5t14 47t26 47.5t31 43t37 43t37 38t39.5 37.5t34.5 32.5q55 53 148.5 118.5t168 115t150.5 123.5t115 153q12 25 -4 41q-39 6 -93 6q-62 0 -145 -8q-116 -11 -185 -11q-23 0 -40 1q-14 1 -94.5 10.5t-122.5 9.5h-29 q-79 -2 -135 -37.5t-88 -123.5q-8 -23 -31 -27t-39 11q-11 10 -11 24q0 6 3 14z" />
<glyph unicode="[" horiz-adv-x="645" d="M125 -535q0 9 1 29t1 29q-12 21 2 39q9 229 42 649.5t40 538.5q5 150 5.5 248t-7 243.5t-15 242t-19 243.5t-17.5 247q-1 16 13 25t30 6q26 -3 100 -13.5t111.5 -15t96.5 -9t109 -3.5q20 0 28.5 -17t0 -34t-28.5 -17q-112 -2 -368 35q-12 2 -14.5 -30.5t2.5 -84 t11.5 -100t13 -94.5t7.5 -51q39 -322 6 -821q-10 -167 -32.5 -471.5t-30.5 -417.5q0 -10 -6 -55t-10.5 -87t-5.5 -95t8 -79q43 -32 118 -51q37 -5 113.5 -17.5t116.5 -17.5q13 -2 19 -13.5t4.5 -24t-10.5 -21.5t-23 -8q-174 23 -232 37q-81 7 -147 4q-12 -1 -22.5 9.5 t-10.5 22.5z" />
<glyph unicode="\" horiz-adv-x="569" d="M-143 1450q0 23 20.5 38t42.5 15q33 0 59 -10.5t45.5 -31t31 -38t26.5 -45.5q45 -83 211 -431.5t186 -399.5q11 -32 71 -145.5t110.5 -220.5t50.5 -146q0 -29 -20.5 -56.5t-57.5 -27.5q-32 0 -63 62t-63.5 153.5t-51.5 124.5q-12 19 -63.5 129t-144.5 301.5t-190 372.5 q-45 84 -84 152t-58.5 99.5t-34 54.5t-19 32.5t-4.5 17.5z" />
<glyph unicode="]" horiz-adv-x="645" d="M-77.5 1907.5q-8.5 15.5 0 31t28.5 15.5q52 0 147.5 0.5t174.5 0.5t149 -1q7 4 18 0h17q14 0 24.5 -9t10.5 -22q-8 -187 -9.5 -384.5t0.5 -481.5t2 -385q-1 -191 13 -585t12 -595q0 -11 -10 -21.5t-23 -9.5q-5 0 -15.5 1t-15.5 1q-2 -2 -10 -2q-27 -2 -79 -4t-56 -2 q-110 -12 -166 -10q-18 0 -28.5 14t-5 28.5t23.5 16.5q4 2 10 2v2q158 0 246 23q24 14 27 37q7 224 0 375q-12 308 -9 737q0 202 -2 599.5t-2 578.5q-34 34 -108 34h-336q-20 0 -28.5 15.5zM465 1905h22v18l-22 -16v-2z" />
<glyph unicode="_" horiz-adv-x="1310" d="M10.5 -177q-5.5 17 3.5 32.5t27 13.5l65 -6q14 7 25 4l25 -6q158 -9 403 -13q158 5 191 5q9 0 67.5 -0.5t78.5 -1t70.5 -4.5t79 -9.5t67 -17t69.5 -27.5l102 -24q17 -5 22 -22.5t-4 -32t-26 -11.5l-49 6q-18 -14 -35 0q-2 0 -6 4q-123 12 -314.5 16t-360 14.5 t-310.5 39.5q-91 3 -168 20q-17 3 -22.5 20z" />
<glyph unicode="a" horiz-adv-x="720" d="M-4 152q-2 16 -2 31q0 53 20 104q26 66 64 123.5t86 101.5q5 5 16.5 15.5t18.5 17.5t20 18t22 16.5t22.5 14t22.5 10.5q10 2 24 4q4 1 8 0q9 0 16 -4q15 -4 29.5 -12t23.5 -15t22.5 -23t18 -22.5t18.5 -27.5t17 -25q14 -21 1.5 -40t-34 -19.5t-37.5 18.5q-1 2 -20 27h-2 q-71 -8 -135 -49t-97 -103q-44 -76 -44 -136q0 -8 1 -17q4 -42 19 -78q32 -42 84 -41q21 0 45 6q147 41 264 152q0 13 10 24.5t23 14.5q42 57 59 84l2 8q8 21 29 26t38 -7.5t13 -33.5q3 -9 -4 -20l-6 -12q-7 -26 -7 -57q0 -44 15 -100q26 -94 63 -112q36 -13 78 -20 q23 -3 29 -23q2 -7 2 -14q0 -13 -8 -25q-11 -18 -31 -18h-2q-43 3 -84 20q-67 20 -115 134q-1 2 -10 24q-34 -4 -51 -8q-19 -3 -31 6q-66 -66 -151 -108q-38 -18 -74 -29.5t-79 -16.5q-11 -1 -22 -1q-30 0 -58 10q-38 14 -62 49q-9 12 -15 24q-6 3 -10 11q-45 54 -53 123z " />
<glyph unicode="b" d="M133 248q0 15 -0.5 28.5t0.5 26.5q5 183 29 422q-13 13 -12 33.5t18 29.5q8 62 10 91q11 86 46.5 213.5t61.5 244.5q23 105 23 195v20q-1 24 19 34q10 5 20 5t20 -5q20 -10 21 -34v-20q0 -91 -24 -196q-27 -117 -61.5 -242t-43.5 -215l-6 -64q54 11 112 12h8l106 -11 q58 -12 105 -36.5t80.5 -67t43.5 -98.5q5 -27 5 -55q0 -85 -40 -188q-54 -137 -147.5 -248.5t-190.5 -157.5q-32 -17 -57 -17q-9 0 -15 2q-30 6 -52 24t-37 53.5t-24 71t-13 77.5t-5 72zM210 202q0 -26 8 -68.5t24 -67.5q205 171 284 354q30 69 38 122q4 25 4 46q0 22 -5 40 q-9 34 -35 56t-56 32q-29 10 -73 12q-24 1 -46 1q-17 0 -31 -1q-34 -2 -78 -7q-26 -261 -29 -369q0 -6 -3 -64q-3 -50 -3 -77q1 -5 1 -9z" />
<glyph unicode="c" horiz-adv-x="665" d="M29 190q-9 44 -9 92q0 70 20 148q32 130 112 197q2 0 2 2q14 9 16 10l8 6q42 26 79 25q15 0 29 -4q49 -14 82 -54t46 -96q6 -28 6 -54t-6 -50q-6 -23 -27.5 -27.5t-39 10.5t-11.5 39q6 22 6 41q0 17 -5 33q-11 30 -33.5 46.5t-52.5 16t-56 -19.5q-43 -61 -55 -143 q-4 -32 -4 -62q0 -49 12 -96q18 -76 73 -135.5t135 -73.5q26 -5 51 -6t48.5 4t44.5 11.5t42.5 18.5t39.5 23.5t39.5 29t38 32t38.5 34.5q24 22 54 1q18 -13 18 -28q0 -10 -8 -22q-42 -59 -108.5 -104.5t-141 -70t-153.5 -24.5q-2 0 -3 -1q-76 -1 -142 23t-117 82.5 t-68 145.5z" />
<glyph unicode="d" horiz-adv-x="796" d="M-14 203q-3 22 -3 43q0 94 54 180q38 115 139 160q45 17 86 22q45 14 85 13q83 0 147 -58q0 73 8 228q7 120 7 214q-1 28 -1 53q-2 112 -25 202q-5 22 11 38q-20 22 -6 50q10 20 28 20q7 0 16 -4q31 -11 52 -38t30.5 -65.5t13.5 -78.5q2 -25 2 -53q0 -18 -1 -37 q-2 -50 -5.5 -85.5t-9 -80.5t-6.5 -60q-13 -188 -13 -309q0 -47 2 -85q13 -199 71 -310q54 -76 139 -129q20 -12 20 -35q-1 -20 -15 -33q-16 -14 -36 -6q-88 35 -147 119q-21 27 -39 57q-3 -8 -23 -43q-37 -67 -102.5 -113t-147.5 -61q-24 -5 -47 -5q-56 0 -108 28 q-74 39 -119 109.5t-57 152.5zM95 284q3 -74 42 -134q49 -72 128 -92q30 -8 61 -8q49 0 98 20q4 0 8 4q93 77 96 202q-16 57 -26 136l-6 8q-3 9 -9 18q-13 6 -18 19q-25 45 -83 63q-34 11 -69 11q-24 0 -49 -5q-80 -27 -143 -106q-30 -57 -30 -124v-12z" />
<glyph unicode="e" horiz-adv-x="665" d="M74 260q-3 26 -3 52q-1 46 9 90q14 68 57 126t109 88q54 26 114 26q39 0 80 -11l25 -6q2 -1 6 -3.5t6 -3.5q77 -32 111 -96q18 -33 18 -73q0 -37 -16 -78q-46 -119 -164 -162q-67 -24 -137 -24q-54 0 -109 14q44 -117 160 -181q80 -44 163 -45q37 0 75 9q24 5 38 -11 q11 -12 11 -27q0 -5 -1 -11q-5 -22 -28 -31q-67 -26 -131 -26q-76 0 -149 37q-134 68 -207 214q-29 61 -37 133zM166 287q48 -17 109 -19q6 0 12 1q55 0 106 12q57 13 93 55q32 36 33 89q0 7 -1 15q-6 77 -55 105q-13 0 -21 2q-23 7 -46 7q-42 0 -84 -24 q-64 -37 -103.5 -104.5t-42.5 -138.5z" />
<glyph unicode="f" horiz-adv-x="606" d="M-135 2q28 55 63.5 104t92 107t81 81.5t99.5 92.5q-29 194 -29 338q0 107 16 186q23 96 52 168l12 41q2 9 14 21q47 95 112 139q36 24 76 24q34 0 72 -18q72 -32 108 -100q35 -66 35 -143q0 -80 -21 -161q-20 -77 -54 -139q-53 -95 -124.5 -177t-178.5 -185q0 -5 1 -16.5 t1 -16.5q15 -106 47 -260q49 -229 49 -348q1 -21 1 -41q0 -77 -21 -129q-25 -76 -87 -116q-54 -35 -114 -35q-9 0 -18 1q-9 -1 -17 -1q-53 0 -91 29q-45 32 -56 106q-4 24 11.5 39t36 10.5t29.5 -27.5q83 -35 139 -35q39 0 64 17q45 42 45 161q-7 64 -22 119 q-24 121 -29 156q-7 52 -23.5 155.5t-23.5 155.5q-96 -92 -163.5 -171.5t-115.5 -170.5q-14 -21 -34.5 -21t-33.5 20q-7 10 -7 20t6 20zM283 465q180 172 241 317q61 125 64 254q1 11 1 22q0 72 -37 108q-36 37 -113 37q-9 0 -19 -1q-52 -39 -90 -106q-21 -162 -29 -227.5 t-15 -186.5q-5 -72 -5 -136q0 -42 2 -81z" />
<glyph unicode="g" horiz-adv-x="796" d="M-30 -558q21 68 72 124.5t113.5 96t127.5 58.5q42 13 116 34t132 39t108 38q36 167 39 328q-96 -116 -257 -170q-88 -29 -164 -29q-58 0 -108 17q-120 40 -132 162q-1 12 -1 25q0 52 19 114q22 71 96.5 134.5t167 102t190.5 55.5q52 9 96 9q38 0 70 -7q119 -25 119 -284 q0 -133 -31 -326q-2 -13 -7 -43t-7 -47q12 7 28.5 11t27.5 6.5t21 9.5t13.5 24t1.5 47q-2 24 17.5 34t40 0t22.5 -34q1 -10 1 -19q0 -11 -2 -22q-2 -19 -6 -34t-14 -29.5t-17 -24t-23 -20.5t-24.5 -16.5t-28.5 -14t-27.5 -11.5t-29.5 -11.5t-28 -10.5q-102 -406 -350 -565 q-84 -54 -157 -65q-16 -3 -31 -3q-55 0 -102 33q-61 41 -91 140q-11 38 -11 75q0 35 10 69zM67 -628q6 -36 23.5 -66.5t49 -46.5t66.5 -20q7 -1 14 -1q29 0 62 13q40 16 76 51q120 115 170 217q45 91 84 215q-22 -5 -83.5 -19t-94.5 -22.5t-87.5 -25t-88.5 -32t-70.5 -39.5 t-58.5 -51q-36 -45 -52 -91q-12 -33 -12 -61q0 -11 2 -21zM92 200q-3 -11 -3 -23q0 -14 5 -28q7 -27 27 -53q38 -51 93 -68q30 -9 61 -9q25 0 51 7q57 13 116 46t107 78t83 96t46 96q-15 166 -131 166q-72 0 -182 -64q-6 -4 -35 -20t-46 -26t-48 -30t-50 -36.5t-42.5 -39.5 t-34 -45t-17.5 -47z" />
<glyph unicode="h" horiz-adv-x="796" d="M16 -55q19 86 69.5 190.5t97.5 207.5t63 194q47 259 61 655q1 26 22 36q10 5 21 5q10 1 20 -5q20 -10 19 -36q-5 -152 -10 -234t-18 -210.5t-35 -231.5q-17 -74 -58 -172q182 248 322 249q31 0 61 -13q53 -24 75 -106q15 -57 16 -121q0 -29 -4 -59q-10 -99 -26 -183 t-34 -134q-9 -28 -39.5 -29t-38.5 29q-5 20 -5 46.5t2.5 44.5t7.5 51t7 45q20 114 20 189q0 40 -6 69q-10 45 -35 45q-17 0 -40 -21q-205 -188 -303 -303l-103 -151q-15 -38 -6 -62q12 -31 -18 -44q-11 -5 -20 -5q-17 0 -31 15q-24 -8 -42 7q-14 11 -13 29q0 6 1 13z" />
<glyph unicode="i" horiz-adv-x="409" d="M98 633q0 15 11 26q-7 25 18 41q35 15 61 15q8 1 16 -1q30 -6 46 -40t21 -70q4 -26 3 -55v-23q-1 -25 -10.5 -86.5t-14.5 -113.5q-4 -43 -4 -88v-19q1 -56 23 -95.5t64 -53.5q25 -9 28.5 -34.5t-18.5 -39.5q-41 -25 -71 -25q-2 1 -4 1q-32 2 -54.5 29t-34.5 61.5 t-16 74.5q-8 59 -8 120q0 30 2 60q1 11 7 68t7 91v5q0 31 -10 67q-12 40 -41 54q-21 10 -21 31zM213 1167.5q0 16.5 12 28.5q33 33 86 39h3q22 0 38 -31q0 -4 2 -6q38 -4 60 -29q28 -30 28 -64q0 -28 -18 -58q-8 -11 -20 -17q-8 -4 -16 -3q-4 0 -9 1q-29 8 -59 28t-49 37 t-46 46q-12 12 -12 28.5z" />
<glyph unicode="j" horiz-adv-x="409" d="M-489 -502v15q0 57 14 121q16 73 49 145q13 21 33.5 21t34 -20t2.5 -42q-68 -150 -68 -257q0 -80 39 -136q39 -54 96 -72q32 -10 63 -10q26 0 52 7q58 14 115.5 46.5t102 74.5t69.5 83q72 117 97.5 252.5t29.5 314.5q8 268 19 366q31 273 151 451q14 20 38 18t33.5 -19.5 t-2.5 -39.5q-58 -86 -89 -202.5t-39 -234t-11 -245.5t-12.5 -249.5t-35 -231.5t-88 -206.5t-161.5 -160.5q-77 -49 -148 -72q-63 -20 -115 -20h-13q-57 3 -104.5 26.5t-80 63.5t-51 95t-20.5 118zM573 1305q-1 4 -1 8q0 22 26 55q13 13 27 13q12 0 24 -9q19 -15 19 -34 q0 -8 -4 -17q3 -8 3 -16q0 -11 -7 -21q-9 -16 -30 -16h-3q-46 4 -54 37z" />
<glyph unicode="k" horiz-adv-x="552" d="M88 1309q-2 6 -2 12q0 15 14 27t29 13q5 1 9 -1q22 -4 28 -29q26 -114 36 -245q9 -115 9 -217q-1 -15 -1 -29q-2 -115 -3 -246q62 23 96.5 51.5t42.5 59.5q6 24 6 51v18q-2 38 -13 78t-15 88q-1 20 -1 39q0 29 3 59q3 29 31.5 28.5t41.5 -25.5q6 -11 4 -25q-2 -11 -2 -23 q0 -27 8 -59q11 -46 25 -82t20 -82q1 -11 1 -22q0 -33 -13 -60q-41 -100 -153 -151q65 -37 120 -107t87 -150q30 -79 42 -163q4 -29 4 -56q0 -51 -14 -94q-8 -23 -30 -27.5t-38.5 11t-8.5 39.5q10 34 10 75q-1 49 -15 109q-28 108 -95.5 199.5t-147.5 115.5q-2 -87 -2 -164 q0 -231 18 -370q3 -24 -17 -34q-10 -5 -20 -5t-20 5q-22 10 -25 34q-17 125 -18 283v38q0 134 6 244q-10 20 0 37q6 105 6 226q0 73 -2 151q-6 210 -41 375z" />
<glyph unicode="l" horiz-adv-x="563" d="M21 48q1 2 4 5q42 47 65 66t49 45q-37 127 -39 182q-8 51 -8 104.5t8 108.5q13 69 29 127q24 170 127 381q59 132 82 180q35 96 70 131q3 7 11 20.5t11 20.5q10 14 21 14q1 -1 2 -1q12 -2 21.5 -17t8.5 -33q60 -41 117 -174q27 -59 27 -145.5t-12.5 -146.5t-34.5 -142 q-11 -37 -23 -71.5t-31.5 -74t-30 -62t-37.5 -69t-34 -58t-40.5 -65t-35.5 -57.5q-70 -118 -94 -149q57 -129 149 -221q12 -9 14.5 -26t-3.5 -30q-3 -17 -15 -24q-5 -3 -11 -3q-7 0 -15 5q-136 84 -207 219q-55 -29 -117 -45q-30 -7 -30 0q0 2 2 5zM182 643q-5 -54 -5 -107 q0 -150 44 -286q4 2 8 10q134 197 185 287q153 268 153 473q0 23 -2 45q-8 60 -51 152q-31 66 -59 66q-12 0 -23 -11q-12 -28 -35 -66q-7 -17 -20.5 -49.5t-20.5 -48.5q-10 -24 -44.5 -99.5t-55.5 -128t-37 -106.5q-26 -71 -37 -131z" />
<glyph unicode="m" horiz-adv-x="1024" d="M62 409q8 104 51 171q26 49 96 49q8 1 16 1q64 0 148 -69q97 -81 155 -98q8 -1 17 -1q51 0 104 32q131 80 199 92q14 11 31 4h6q45 0 75 -30q32 -32 41 -109q14 -104 14 -190q0 -229 -97 -333q-13 -12 -27 -12q-6 0 -12 2q-21 7 -29 29q-22 58 -30 131q-7 59 -7 105v21 q2 53 7.5 140.5t6.5 130.5q-78 -49 -141 -76.5t-127 -27.5q-10 -1 -19 -1q-69 0 -141 50q-6 4 -42 34.5t-72 54.5t-62 30q-22 -3 -28 -31q-7 -32 -7 -69q0 -58 17 -128q15 -67 37 -254q10 -17 4.5 -36t-27.5 -23h-6q-31 -7 -43 18q-22 -4 -35 19q-41 72 -61 171 q-14 70 -14 142q0 31 2 61zM893 164q1 -58 10 -105q33 85 35 208v25q0 105 -20 165q-1 5 -4.5 12.5t-4.5 9.5q-1 -40 -6 -104t-8 -109q-2 -34 -2 -75v-27z" />
<glyph unicode="n" horiz-adv-x="860" d="M8 68q0 53 20 95.5t60 88.5q65 77 104.5 166.5t71.5 208.5q6 24 28 28q4 1 8 1q16 0 30 -12q18 -16 12 -40q-27 -94 -31 -106q66 51 127.5 80.5t128.5 29.5t113 -45q46 -22 81 -63.5t48 -91.5q5 -17 5 -37t-2.5 -36t-10.5 -39t-13 -34.5t-16 -36.5t-14 -32 q-2 -4 -17 -33.5t-27.5 -56.5t-22 -56.5t-5.5 -40.5q9 -6 27 -6q21 -1 32.5 -19t5.5 -37.5t-28 -23.5q-20 -4 -38 -4q-33 0 -59 12q-41 18 -40 64q-12 29 -12 67q0 64 34 154q1 4 21 58.5t27.5 84t7.5 72t-21 64.5q-2 0 -6 1t-6 1q-21 5 -43 5q-44 1 -88 -19 q-66 -28 -124.5 -87.5t-108 -120.5t-103 -131t-86.5 -102q-19 -19 -44.5 -8t-25.5 37z" />
<glyph unicode="o" horiz-adv-x="757" d="M20 150q-9 30 -9 62q0 34 9 71q12 48 32.5 95.5t51.5 94t70 75.5q40 29 88 40q15 3 31 3q35 0 72 -16l12 -8q45 13 86 13q94 0 162 -70q120 -72 120 -221q-1 -76 -41.5 -142.5t-103.5 -108.5t-139 -63q-57 -16 -111 -16q-18 0 -35 2q-70 7 -129 30t-103.5 61t-62.5 98z M164 256q2 -82 52 -142q47 -57 122 -57h8q88 2 165.5 44.5t100.5 121.5q10 41 10 77q0 30 -7 58q-16 60 -60 97q-53 19 -112 19h-6q-62 -1 -118 -19q-24 -6 -36 6q-119 -96 -119 -197v-8z" />
<glyph unicode="p" horiz-adv-x="921" d="M-11 -698v24q0 87 13 187q14 114 26.5 184.5t39.5 204.5q3 121 24 211q6 17 19 24q26 169 26 309q0 25 20.5 35.5t41 0t20.5 -35.5q0 -94 -8 -167q6 11 14 23t17.5 26.5t15.5 23.5q20 28 50.5 63.5t74 79t90 79t97 63t94.5 31.5h14q37 0 72 -17q49 -27 68 -79 q14 -37 14 -78q0 -16 -2 -32q-8 -58 -20.5 -123t-25.5 -119q-9 -37 -9 -69q0 -15 2 -29q6 -44 38 -61q20 -10 20 -32q0 -20 -15 -33q-16 -15 -36 -8q-30 10 -50 28.5t-29.5 45.5t-14.5 52t-2.5 61.5t5 60.5t8.5 61.5t8 52.5q6 54 6 95q0 113 -47 126q-24 0 -62 -18 q-4 0 -8 -4q-82 -61 -152 -137q-176 -202 -253 -490l-33 -119q4 -41 13.5 -117t14.5 -121.5t8 -112.5v-43q0 -41 -3 -73q-5 -48 -20 -102.5t-42 -99.5q-14 -24 -37 -21q-16 -16 -26 -22q-9 -7 -20 -7q-8 0 -16 3q-21 8 -24 26q-17 93 -19 189z" />
<glyph unicode="q" horiz-adv-x="796" d="M10 233q-4 21 -4 41q0 38 14 74q7 68 43 121t87 81.5t113 38.5q30 5 58 5q32 0 63 -6q59 -11 112 -44t84 -85q27 70 55 106q11 12 28.5 11.5t28.5 -11.5q37 -39 37 -100q0 -58 -21 -112q-22 -55 -59 -113q-54 -169 -65 -213q-6 -70 -6 -146v-59q4 -109 15.5 -200 t48.5 -144q28 -42 69 -42q12 0 24 3q30 9 46 -18q7 -12 7 -23q0 -14 -12 -27q-39 -41 -78 -45q-6 -1 -12 -1q-31 0 -56 19q-29 22 -56 63t-43.5 81t-28.5 80q-27 90 -32 166q-2 23 -2 48q0 57 9 124q6 37 15 80q4 56 8 88q-78 -44 -167 -44q-26 0 -54 4q-120 17 -209 97 q-49 42 -60 102zM106 362q-2 -9 -2 -19q0 -95 166 -210q34 -6 66 -6q113 0 180 78l19 92q-31 113 -80 174q-44 22 -96 22q-46 0 -98 -17q-111 -37 -155 -114z" />
<glyph unicode="r" horiz-adv-x="606" d="M-8 692q-3 8 -3 14q0 14 11 24q12 12 29 12q5 0 10 -2q23 -4 31 -27q10 -31 49.5 -75t50.5 -63q53 -88 88 -174l25 -65q75 268 272 268h12q21 -1 32 -18q7 -11 7 -24q0 -6 -2 -12q-6 -19 -26 -26q-5 0 -13 -4q0 -4 2 -6h-16q-27 -13 -49 -32t-36 -39t-25 -49t-16.5 -51 t-10 -57t-5.5 -55.5t-3 -56.5q-5 -64 -29 -104t-78 -64q-12 -4 -22 -4q-24 0 -35 25l-2 4q-13 41 -13 94q0 29 4 63q-23 150 -108 299q-12 20 -63.5 90.5t-67.5 114.5z" />
<glyph unicode="s" horiz-adv-x="681" d="M26 149q0 16 15 29q8 8 14 12l-6 7q51 22 92 63q121 157 121 281q0 45 -16 86q-9 23 3 41q11 18 29 18h2q19 -1 35 -20q15 -24 47.5 -66.5t65.5 -85.5t72 -96.5t69.5 -104.5t56.5 -105q25 -52 32 -100q3 -21 3 -41q0 -25 -5 -49q-9 -42 -46 -75.5t-100 -53.5 q-6 -1 -11 -1q-21 0 -33 23q-16 29 7 48q55 39 75 81q16 32 15 60q0 8 -1 16q-6 34 -34 74t-59.5 70t-74 73.5t-66.5 74.5q-47 -155 -160 -244q-30 -34 -35 -39q-22 -22 -39 -8l-6 -4q-20 -11 -40 1q-22 12 -22 35z" />
<glyph unicode="t" horiz-adv-x="606" d="M56 -86q-10 13 -11 25q0 14 14 28q48 48 86 115t67 155t45 149.5t38 162.5q-73 18 -162 18v4q-20 12 -20 38t20 36v4h19h14q13 13 29 13q59 0 124 -9q1 2 2.5 7.5t2.5 7.5q10 39 34 118q41 240 41 517q-21 33 11 53q14 9 26 8q16 0 29 -16q14 -11 14 -27q19 -41 25 -98 q3 -35 3 -68q1 -21 -1 -41q-4 -52 -18 -125t-25.5 -117t-31.5 -115.5t-25 -92.5l-7 -29q130 -40 160 -139q1 -5 1 -10q0 -18 -17 -33q-22 -19 -43 -2l-4 4q-13 -3 -31 8q-49 39 -92 57q-5 -24 -16.5 -71t-16.5 -70q-7 -25 -17.5 -72.5t-18.5 -79t-21 -75.5t-28 -76.5 t-35.5 -66.5t-48.5 -60t-62 -45q-12 -7 -23 -7q-16 0 -30 17z" />
<glyph unicode="u" d="M63 336q6 78 25 162q12 108 45 186q6 14 21 18q12 9 25 9q11 0 22 -6q26 -14 16 -43q-39 -115 -53 -197q-4 -37 -4 -74q0 -78 16 -160q7 -38 11 -53.5t15 -49t28 -54t40 -31.5q40 -16 74 -16q28 7 47 18q14 8 25 27q28 45 46 97t26.5 114t12 105.5t5.5 119t4 106.5 q3 26 26.5 36t43.5 -7q43 -38 65.5 -96.5t22.5 -122t-15 -132.5t-47 -130t-73.5 -113t-95 -82t-111.5 -37q-11 -1 -21 -1q-48 0 -100 24q-62 28 -97 88q-36 61 -44 139q-4 44 -4 86q0 36 3 70z" />
<glyph unicode="v" horiz-adv-x="819" d="M4 702q12 17 28 17q11 0 23 -8l29 -19q18 -10 18 -33q58 -32 105 -91t92 -140q90 -116 133 -217q29 93 75.5 174t111.5 143q65 64 143 86q38 11 78 11q43 0 90 -13q22 -8 28 -28q2 -8 2 -14q0 -12 -7 -23q-11 -17 -33 -15q-10 1 -20 1q-114 0 -224 -105 q-120 -114 -174 -262q-20 -80 -23 -133q7 -37 7 -75q0 -13 -1 -26q-2 -20 -20 -32q-12 -8 -24 -8q-7 0 -13 2q-18 6 -22 28q-8 36 -8 73q0 11 1 23q-1 1 -2 4t-2 5v6v8q-11 46 -36 103.5t-41 85.5l-56 98q-9 15 -28.5 51t-30.5 55q-17 18 -69.5 73.5t-80.5 86.5q-2 1 -5.5 2 t-4.5 2q-29 9 -29 41l-8 8q-11 14 -11 28q-1 13 9 27z" />
<glyph unicode="w" horiz-adv-x="948" d="M24 71q0 29 9 76q30 174 37 388q-3 33 -9 79q9 0 11 -2v43q0 17 15 17q6 0 14 -3q29 -11 38 -32q17 -45 26 -92t11 -103q1 -34 0 -61v-33q-1 -37 -6 -106.5t-6 -96.5q24 22 85 89.5t108.5 111t72.5 45.5q26 3 43.5 -9t36 -35.5t35.5 -35.5q12 -8 59 -66.5t100 -116 t84 -69.5l7 17q5 28 5 62q0 59 -16 134q-7 31 -13 67.5t-8.5 58t-7.5 67.5t-7 61q-12 17 -6.5 36.5t28.5 23.5h4q31 6 45 -19q21 3 33 -18q40 -72 61 -171q15 -73 15 -149q0 -27 -2 -54q-8 -104 -49 -171q-31 -47 -90 -47h-7q-10 -2 -21 -2q-66 0 -143 70q-132 108 -161 190 q-52 -55 -158 -115q-58 -36 -154 -102q-20 -12 -41.5 0.5t-19.5 34.5v8q-20 -14 -34 -14q-23 0 -24 44z" />
<glyph unicode="x" horiz-adv-x="921" d="M-4 602q10 25 33 25q7 0 14 -2q72 -24 106.5 -36.5t92.5 -38t100.5 -56t77.5 -70.5q29 -33 47 -62l47 44q2 2 6 7t6 7q45 56 85.5 91t88.5 56q36 15 75 15q15 0 29 -2q54 -8 114 -43q20 -11 20 -30q0 -9 -5 -19q-14 -32 -46 -23q-4 2 -8 2l-2 -2l-13 6q-34 9 -64 10 t-58 -8t-48.5 -18.5t-47 -31.5t-41 -35.5t-42.5 -41.5l-49 -61q27 -45 47 -73.5t50 -60.5t64 -48t73 -17q26 0 37.5 -25.5t-9.5 -42.5q-36 -28 -74 -34q-13 -2 -26 -2q-26 0 -48 8q-34 12 -73 43t-71 64.5t-72 82.5q-31 -26 -147.5 -105.5t-170.5 -137.5q-13 -13 -27 -13 q-10 0 -21 8q-25 16 -19 43q-2 2 -2 11q0 48 15 85t37 60t57 43.5t66 32t73 28.5t69 31q-44 56 -75 92t-70.5 74.5t-76.5 57.5t-71 20q-19 1 -29 13t-10 28q-18 13 -18 31q0 9 4 20z" />
<glyph unicode="y" horiz-adv-x="819" d="M-25 392q4 71 38 131.5t91 88.5q10 5 19 5q12 0 23 -7q20 -14 20 -34t-21 -33q-55 -27 -75 -97q-13 -44 -13 -88q0 -28 5 -56q13 -73 56 -133t103 -69q19 -3 38 -3q74 0 137 45q77 57 120 155q-23 62 -23 119q0 85 50 159q15 22 41 20t32 -28q17 -55 17 -113 q0 -75 -29 -155q16 -36 35 -73t47 -86t39 -70q105 -165 136 -228q52 -107 52 -192q0 -60 -26 -109q-38 -72 -131 -129q-85 -53 -186.5 -90t-215.5 -50q-30 -4 -58 -4q-78 0 -142 27q-63 25 -94 73q-26 42 -26 90q0 8 1 16v6q0 46 41 100q2 3 8 10.5t8 10.5q17 18 38 11 t27 -27.5t-7 -41.5q20 -57 38 -90q44 -10 112 -11h19q51 0 56 3q145 19 204 44q44 18 66 44q87 99 96 203q-4 65 -33 138.5t-82 176t-73 148.5q-70 -108 -181 -155q-56 -23 -114 -23t-119 24q-56 23 -97 79t-56 126q-12 56 -12 112q0 15 1 30zM276 -631q25 -11 53.5 -11 t59.5 11q-27 -1 -55 -1t-58 1z" />
<glyph unicode="z" horiz-adv-x="860" d="M47 612q-6 10 -6.5 20t6.5 21q45 79 117 105q11 26 37 26h41q16 0 24 -8q79 -6 148 -6q31 0 59 1q27 1 55 1q71 0 152 -7q114 -10 203 -42l14 -8q8 -4 10 -4q22 -9 28 -29q2 -6 2 -12q0 -15 -11 -29q-45 -52 -107.5 -100t-113 -77t-129.5 -72t-123 -70 q-194 -127 -201 -183q29 -25 95 -33q47 -5 79 -5q13 0 23 1q18 1 53 2t53 2q26 0 37 -26q22 7 36 -9.5t9.5 -38.5t-27.5 -30q-76 -26 -136 -36q-35 -6 -72 -7q-27 -1 -55 3q-68 8 -132 40q-1 0 -18.5 9t-23.5 12.5t-23.5 13t-24.5 16t-20 17.5t-17.5 20.5t-9 21t-2.5 23.5 t10 25q30 50 104 102q16 18 35.5 36t36 31t43.5 29t41.5 25t48 25t45 21.5t49.5 22.5t46 21q151 94 245 186q-56 8 -163.5 8t-149.5 3q-24 2 -62 8.5t-66 11.5t-63 6t-61 -5.5t-52.5 -26t-45.5 -52.5q-15 -20 -36 -20t-34 20z" />
<glyph unicode="{" horiz-adv-x="681" d="M46 -301q-1 62 7.5 114t31 120t42.5 115.5t49 111.5q10 23 32 66.5t37.5 79t24.5 67.5q14 65 21 119q-118 -45 -160 26q-29 50 -7 120q20 61 59 73q14 4 28 0q87 -22 121 -105q16 19 22 47q15 55 15.5 123t-6 117.5t-21.5 124.5q-7 38 -24 123q-16 79 -24.5 122 t-20.5 124t-13.5 128.5t1 117t18 110.5t43.5 87.5t71 69t107 35t145 4.5q20 -2 28.5 -19.5t0 -33.5t-28.5 -14q-263 26 -317 -144q-37 -113 16 -362q11 -53 37 -161q62 -258 70 -372q17 -227 -101 -311q8 -103 -39 -227q-15 -39 -48 -108.5t-59 -127t-53.5 -130t-36 -134 t-2 -122t45 -110.5t106.5 -85q16 -14 16 -30.5t-15.5 -27.5t-33.5 -2q-63 32 -104.5 78t-60.5 93.5t-20 109.5zM169 570.5q0 -12.5 17.5 -21t49.5 -6.5q30 10 55 24q-18 83 -115 29q-7 -13 -7 -25.5z" />
<glyph unicode="|" horiz-adv-x="454" d="M164 813q0 8 0.5 70.5t0.5 76t1 71t2 78t3 73.5t4.5 80.5t6.5 76t8.5 84t11 80t13.5 86.5q17 27 38.5 12.5t18.5 -47.5q-1 -7 -2 -21.5t-2 -21.5q-21 -373 -22.5 -688t8.5 -495t19.5 -326t8 -252.5t-23.5 -202.5q-8 -29 -36.5 -24t-31.5 33q-33 519 -26 1257z" />
<glyph unicode="}" horiz-adv-x="681" d="M-20 1830q0 18 16 32q175 104 318 43.5t214 -252.5q82 -229 62 -445q-8 -83 -60 -172q-2 -4 -26.5 -45.5t-32 -57.5t-22.5 -50t-18.5 -62t-0.5 -55q29 45 70.5 52t95.5 -32q9 -8 26.5 -34t18.5 -35q11 -48 -7.5 -82.5t-51.5 -47t-71 -9t-65 23.5q3 -93 45.5 -210.5 t94.5 -239.5t67 -201q29 -142 -20 -252h2q-1 -2 -9 -20t-10.5 -23t-13 -23t-18 -26l-22.5 -24t-29.5 -24.5t-37 -21.5t-47 -21t-57 -16.5t-69.5 -13.5q-81 0 -95 33q-8 18 1 34.5t30 16.5q156 -3 240 53q121 89 88 266q-14 113 -94 335.5t-93 287.5q-16 81 -4 150 q-48 74 -30 161q13 62 78 178t75 181q25 169 -14 321q-19 76 -46 139.5t-69.5 116.5t-93.5 79.5t-120 19.5t-146 -56q-18 -11 -33.5 -0.5t-15.5 28.5zM471 705q1 -8 3.5 -19.5t20 -29t44.5 -13.5q28 4 38.5 26.5t1.5 46t-28 29.5q-18 4 -38 -6t-31 -22z" />
<glyph unicode="~" horiz-adv-x="1228" d="M84 472q-8 14 2 32q50 80 163.5 111.5t203.5 -3.5q41 -16 164.5 -92t191.5 -106q75 -13 141 0q16 3 28 -6.5t15 -24.5q73 16 121 98q13 25 39.5 13.5t20.5 -39.5q-27 -109 -121 -160t-213 -37q-51 7 -75 11.5t-64.5 17t-67.5 30.5q-33 20 -81.5 61t-84 72.5t-84.5 56 t-94 23.5v2q-23 10 -23 33q-72 -15 -125 -94q-11 -17 -30 -15t-27 16zM586 438l30 -24q14 -14 37 -27q4 6 19 10q-8 3 -86 41z" />
<glyph unicode="&#xa1;" horiz-adv-x="606" d="M143 -639q8 308 99 659q10 36 34 121.5t36.5 130.5t29 123t22 133t5 124t-12.5 130q-2 14 6 31l-6 25q-6 24 11.5 39t39.5 10t29 -29q27 -113 17 -246q0 -91 -15.5 -198.5t-33.5 -185.5t-50 -201q-2 -15 -6 -44q-19 -142 -31 -219.5t-37.5 -197t-56.5 -215.5 q-7 -21 -27 -27.5t-37 4.5t-16 33zM311 1231q0 10 8 22l7 11q10 10 22 14h2q1 0 4 1t4 1h2q1 0 4.5 -1t4.5 -1h2q8 -2 20 -14l2 -3q2 -3 4 -4q8 -8 11 -20q8 -22 -17 -47q-10 -8 -24 -10.5t-25 4.5q-29 25 -31 47zM324 1260l2 4q0 -1 -1 -2t-1 -2z" />
<glyph unicode="&#xa8;" horiz-adv-x="530" d="M53 1194q-8 -29 26.5 -56.5t74.5 -21.5q41 7 50.5 28t-7.5 64q-22 56 -85 49h-1q-10 -10 -29 -31.5t-29 -31.5zM332 1104v45q0 31 28 49t61 18t61 -18t28 -49v-45q0 -22 -44.5 -31t-89 0t-44.5 31z" />
<glyph unicode="&#xa9;" horiz-adv-x="1638" d="M31 727q0 167 64 313t171.5 247t251.5 158.5t301 57.5q211 0 390.5 -97.5t289 -277t109.5 -401.5t-109.5 -401.5t-289 -277t-390.5 -97.5q-157 0 -301 57.5t-251.5 158.5t-171.5 247t-64 313zM207 727q0 -180 80.5 -326.5t220.5 -228.5t311 -82q128 0 241.5 48.5t195 132 t129 202.5t47.5 254t-47.5 253.5t-129 202.5t-195 132.5t-241.5 48.5q-171 0 -311 -82.5t-220.5 -228.5t-80.5 -326zM395 731q0 207 121 338t326 131q152 0 257 -83.5t128 -237.5h-148q-17 85 -81 133.5t-156 48.5q-130 0 -204.5 -92t-74.5 -236q0 -138 79 -235t206 -97 q93 0 156 52t75 135h150q-29 -151 -133.5 -238.5t-247.5 -87.5q-134 0 -238 61.5t-159.5 168t-55.5 239.5z" />
<glyph unicode="&#xad;" horiz-adv-x="681" d="M119 471q0 21 4.5 31.5t24.5 20.5t63 14t117 4q144 0 188.5 -23t44.5 -96q0 -34 -56 -43.5t-226 -9.5q-84 0 -122 20t-38 82z" />
<glyph unicode="&#xae;" horiz-adv-x="1638" d="M141 1157q6 54 60 82q64 33 106 -6q23 -20 28 -48t-9 -52l-7 -11q-1 -4 -12 -20q88 -155 154 -213q144 -123 172 110q4 38 6 160v4q0 11 8 23q-57 0 -78 49q-22 44 -0.5 103.5t70.5 68.5q9 7 29 10q18 0 34.5 -13t24.5 -30l6 -18q26 -23 35 -58q7 -37 -17 -66t-63 -40 q12 -8 17 -21q1 -3 11 -30t19 -48t23.5 -50t30.5 -43.5t34 -20.5t39 11.5t41 58.5q29 54 53 112q10 23 37 15.5t27 -31.5q0 -3 -1.5 -22t-1.5 -32.5v-36.5t3 -38.5t8.5 -34.5t16 -28t24.5 -14t35.5 1t48.5 23q85 53 170 141q-8 24 -8 37q-5 57 36.5 89.5t92.5 4.5 q16 -10 16 -23q34 -26 43 -60.5t-20 -66.5q-44 -34 -94 -28q-11 -16 -47 -66.5t-51.5 -73t-46.5 -71t-45 -78t-32.5 -75t-24 -80.5t-5 -76.5t11.5 -79.5q73 -27 115 -72q21 -20 4.5 -42t-39.5 -13q-6 -11 -19 -15.5t-28 0.5q-178 82 -365 103q-73 3 -147 0q-24 -1 -75 0.5 t-69 1.5q-75 -10 -131 -23h-14q-20 -7 -51 -26q-15 -13 -36.5 -7t-21.5 29q5 86 127 107q22 132 -21.5 268.5t-131.5 302.5q-10 -3 -19 0q-32 3 -53 31q-36 18 -33 55zM428 825q58 -168 41 -317q58 2 87.5 1t79 -5t58.5 -4q9 -1 157.5 -4t223.5 -19q-20 106 18 211.5 t117 226.5q-97 -56 -186 -43q-65 10 -76 115q-73 -120 -145 -100q-57 15 -98 92q-12 -193 -121 -203q-82 -8 -156 49zM547 614v41q0 22 17.5 31t34.5 0t17 -31v-41q0 -18 -17 -26t-34.5 0t-17.5 26zM745 627q0 13 9 49q0 6 4 22v4q-4 10 0.5 23t13.5 18q12 7 24.5 3 t20.5 -15q9 -19 8 -32t-6.5 -37t-5.5 -35q-1 -20 -18.5 -28.5t-34 0t-15.5 28.5zM911 621q2 8 2 26q-3 15 11 25q2 13 13 20t22.5 6.5t21 -9t8.5 -23.5q0 -44 -20 -70q-13 -17 -36.5 -7t-21.5 32zM918 1323q6 19 18 31q19 22 51 26q8 2 25 2q33 -3 55 -24t23 -51 q3 -28 -15 -60q-8 -16 -12 -22q-39 -56 -86 -43q-38 11 -55 57q-29 36 -4 84z" />
<glyph unicode="&#xb4;" horiz-adv-x="530" d="M29 1130q50 142 182 271q64 64 126 97t128 11q16 -5 24.5 -18.5t4.5 -30.5q-4 -11 -9 -21t-13.5 -20.5t-14 -17.5t-19 -16.5t-18 -14t-21 -14.5t-19 -11.5t-21.5 -12.5l-19 -11q-164 -92 -213 -188q-4 -4 -4 -9q-10 -14 -17 -16q-9 -23 -31.5 -27t-38.5 11t-7 38z M334 1405q4 3 13 8t13 8q-10 -4 -26 -16z" />
<glyph unicode="&#xb7;" horiz-adv-x="569" d="M133 449q0 46 45 105.5t90 59.5q62 0 113 -50t51 -109q0 -67 -64.5 -113.5t-113.5 -46.5q-52 0 -86.5 49.5t-34.5 104.5z" />
<glyph unicode="&#xba;" horiz-adv-x="552" d="M127 1405q7 29 19.5 57t31 56.5t41.5 46t52.5 24.5t62.5 -8q4 -4 8 -4q91 24 150 -35q71 -45 71 -133q-1 -61 -42 -109.5t-100 -71t-116 -16.5q-91 8 -144.5 57.5t-33.5 135.5zM213 1389q2 -49 32 -84.5t79 -34.5q53 0 99 25.5t60 74.5q12 43 2.5 80t-36.5 59 q-66 21 -142 0q-14 -6 -22 2q-75 -59 -72 -122z" />
<glyph unicode="&#xbf;" horiz-adv-x="796" d="M55 -270q-41 155 27 307q0 6 4 10q31 79 85.5 151.5t114 128t118 110.5t109 122.5t75.5 140.5q5 33 13 97.5t13 95.5q4 22 23.5 28t37.5 -5.5t19 -32.5q6 -152 -39 -262q-21 -107 -64.5 -185t-135.5 -145q-4 -3 -28.5 -20.5t-32 -22.5t-30.5 -22t-32.5 -24.5t-30 -24 t-31.5 -26.5t-28 -26.5t-28 -29.5t-23.5 -28.5t-22.5 -31.5q-22 -63 -29 -122t3.5 -116.5t56 -95t123.5 -43.5q17 -3 28 -14q94 29 188 108t121 139q12 29 42 18q27 -9 31 -36q2 -11 -3 -23q-22 -52 -75 -106t-120 -98t-142.5 -68t-142 -22.5t-119.5 45t-75 129.5zM655 1419 q-8 30 19 45l16 6q2 3 6 8.5t6 8.5q19 21 43.5 9t26.5 -38q3 -35 -24 -59q-8 -4 -15 -4q-3 -6 -10 -13q-21 -23 -47 -6t-21 43z" />
<glyph unicode="&#xc1;" horiz-adv-x="880" d="M86 -57l2 4q4 81 20 308t21 351q-9 12 -8.5 29t10.5 29q-23 295 -20 420q1 59 6 112q10 114 62 160t140 43q80 23 167 3.5t173 -73.5q243 -154 170 -569q-21 -217 -111.5 -440.5t-193.5 -344.5q-24 -27 -51 -4t-12 54q56 108 86 168t82 180.5t82 220.5q19 91 24 176.5 t-3.5 167.5t-37.5 150t-75 120t-119 81t-168 30q-86 -30 -103 -148q-8 -54 -10.5 -113.5t-2.5 -135.5t-1 -115q0 -43 -4 -129q62 -2 120.5 -13t116.5 -33.5t98 -65t52 -99.5q7 -35 -22.5 -47.5t-51.5 14.5q-18 25 -80.5 69t-125.5 69.5t-91 -7.5q-6 -12 -18 -16 q7 -115 8.5 -163.5t1 -142t-13.5 -167t-37 -144.5q0 -6 -1 -16.5t-1 -15.5q-1 -25 -22 -35.5t-40.5 0t-17.5 35.5v18q-4 11 0 25zM428 1536q46 133 182 272q66 63 128 96t126 11q16 -5 25.5 -19t3.5 -30q-5 -16 -15.5 -32t-20 -26.5t-28.5 -24.5t-28.5 -20t-32.5 -19.5 t-29 -17.5q-164 -92 -213 -188l-4 -8q-7 -14 -16 -17q-9 -22 -31.5 -26t-38.5 11t-8 38zM733 1810q22 13 27 17q-13 -6 -27 -17z" />
<glyph unicode="&#xc2;" horiz-adv-x="880" d="M102 -84q0 12 2 18q-6 12 0 27v4q2 30 19.5 279.5t23.5 380.5q-10 11 -9 27.5t12 27.5q-9 96 -12.5 140.5t-8 124t-3.5 144t7 125.5q21 211 205 201q80 24 166 5t172 -72q246 -155 170 -572q-19 -215 -110 -438.5t-195 -345.5q-23 -27 -51 -4t-13 53q181 346 252 571 q19 91 24 176.5t-4 167.5t-38 149.5t-75 119.5t-119.5 81t-168.5 29q-85 -30 -102 -145q-7 -55 -9.5 -110t-3 -146t-0.5 -111q-4 -86 -4 -129q62 -1 120.5 -11.5t116 -33.5t98 -65.5t52.5 -100.5q7 -35 -23 -46.5t-50 16.5q-19 25 -81.5 68.5t-126 68.5t-89.5 -8 q-8 -10 -21 -17q10 -141 12.5 -215t-8.5 -190.5t-43 -210.5q-2 -10 -2 -33q-2 -24 -23 -34t-40.5 0t-18.5 34zM139 1888q3 24 29 39q29 15 49 -2q11 -9 13 -22.5t-5 -24.5q-2 -2 -2 -6q0 -2 -6 -8q44 -76 72 -101q19 -16 33.5 -19t23 6.5t14.5 22t8.5 32.5t3 35t1 32t0.5 20 t4 11q-28 0 -37 22q-10 20 0 48.5t33 31.5q8 4 12 4q18 0 29 -18q0 -2 1 -5t1 -4q14 -14 16 -28q3 -16 -8.5 -29t-28.5 -20q3 -3 6 -9q1 -1 9 -22t15.5 -34.5t19 -26.5t25 -6.5t26.5 32.5l24 51q4 11 16.5 7.5t12.5 -15.5q0 -2 -0.5 -13.5t-0.5 -20.5t1 -22.5t5 -21.5 t10.5 -14t18 -4t27.5 12q31 17 80 66q-4 12 -4 16q-2 27 18 42.5t44 2.5q6 -3 6 -10q16 -11 20.5 -28.5t-8.5 -31.5q-18 -15 -45 -12q-7 -10 -22 -32t-23.5 -34.5t-22 -33.5t-21 -36t-15.5 -35t-11 -36.5t-3 -36t5 -36.5q39 -16 54 -33q11 -10 3.5 -21t-18.5 -6 q-6 -12 -20 -8q-81 40 -172 49q-34 3 -70 0q-9 0 -31 1t-35 1q-52 -9 -61 -12h-6q-19 -8 -25 -12q-6 -6 -16 -3t-10 13q3 41 59 51q11 60 -10 123.5t-62 140.5h-8q-16 3 -26 17q-18 9 -15 24zM274 1735q25 -73 19 -150q25 2 41 1.5t36.5 -2t26.5 -1.5q3 0 73 -2.5t103 -9.5 q-15 87 66 205q-53 -25 -88 -19q-17 1 -24 14.5t-11 38.5q-30 -58 -67 -47q-27 8 -48 43q-4 -89 -55 -96q-41 -3 -72 25zM328 1636v19q0 11 8.5 15.5t17 0t8.5 -15.5v-19q0 -14 -17 -14t-17 14zM422 1640q0 9 4 25q0 6 2 12q-3 5 -1 11t7 8q13 10 21 -6q4 -9 3.5 -15.5 t-3 -18t-2.5 -16.5q-1 -9 -9 -13t-15.5 0t-6.5 13zM500 1638v15q0 2 4 10q1 8 9 10.5t16 -1.5t8 -13q0 -21 -13 -31q-5 -8 -15 -3.5t-9 13.5zM502 1966q3 9 8 14q13 13 25 13q4 2 10 2q15 -2 26 -12t11 -25q3 -11 -9 -27q0 -4 -4 -12q-19 -23 -41 -18q-18 7 -24 26 q-14 14 -2 39z" />
<glyph unicode="&#xc7;" horiz-adv-x="948" d="M160 696q44 375 270 533q36 23 47 28q30 18 72 35q20 7 31 -2q57 6 106 -16q67 -29 103 -79.5t39 -110t-14.5 -121t-53.5 -119.5q-15 -20 -36 -19.5t-34 20t0 40.5q29 47 31.5 100t-17.5 94.5t-54.5 72.5t-79 34t-91.5 -21q-19 -14 -53 -43l-10 -12q-78 -84 -119 -199 q-58 -168 -61 -348q-4 -106 4 -178q14 -89 22 -123q77 -272 367 -311q19 -3 31 -21.5t7 -37t-28 -21.5q-4 -2 -10 -2q-41 -4 -60 -2q0 -3 1 -7.5t1 -6.5q8 -44 -4.5 -87t-48.5 -65q-32 -19 -71.5 -21t-73.5 13q-37 17 -45 53.5t14 69.5q16 20 37.5 19.5t34.5 -20t0 -40.5 q-5 -10 -6 -11q8 -4 16 -4q42 0 55 11q15 16 16 42.5t-13.5 48.5t-37.5 25q-20 3 -30 19q-85 47 -144 138t-88 206q-63 197 -22 446z" />
<glyph unicode="&#xc9;" horiz-adv-x="665" d="M70 1q-3 48 2.5 79.5t19 89.5t19.5 90q47 256 34 553q-1 23 -5.5 85t-6 98t-2 95.5t6 101t18.5 89.5t35 87t55 69q35 34 97.5 38t129.5 -15.5t122.5 -43.5t96.5 -49q21 -13 19 -36.5t-19.5 -34t-40.5 0.5q-74 45 -146 64t-134.5 9.5t-103.5 -64.5t-46 -152q-4 -77 6 -389 v-37l4 2q44 5 144.5 24t156.5 23q21 2 32.5 -16.5t5.5 -39t-27 -24.5q-3 0 -28.5 -4t-30 -4.5t-27 -4t-29 -5.5t-26.5 -6.5t-28.5 -8t-25.5 -9t-27.5 -11.5l-24.5 -14t-26 -17q-4 -8 -4 -16q-12 -141 -33 -279l-7.5 -45t-9 -56t-8 -58.5t-3.5 -59.5t3.5 -52t13 -44 t26.5 -27.5t42 -9.5t60 17q72 33 168 63q20 6 36 -9.5t15.5 -36.5t-20.5 -30q-15 -6 -49.5 -25t-68 -36t-76.5 -36t-81 -28t-74 -10t-64.5 17t-43.5 55q-19 45 -22 93zM395 1571q46 131 183 272q66 63 127.5 96t125.5 11q16 -5 25.5 -19t3.5 -30q-5 -16 -15.5 -32 t-19.5 -26.5t-28.5 -24.5t-28 -20t-32.5 -20t-29 -17q-164 -92 -213 -188q-2 -2 -5 -8q-7 -14 -16 -17q-9 -22 -31.5 -26t-38.5 11t-8 38zM700 1845q22 13 27 17q-13 -7 -27 -17z" />
<glyph unicode="&#xca;" horiz-adv-x="665" d="M64 11.5q-3 48.5 2 79.5t19 89.5t19 89.5q48 278 33 553q-1 26 -6 100.5t-6.5 116t1.5 111t14 115.5t36 96.5t62 85.5q35 34 97 38t129.5 -16t123.5 -43.5t98 -48.5q21 -14 19 -37.5t-19.5 -33.5t-40.5 0q-74 45 -146.5 64.5t-135 10t-103.5 -64.5t-45 -152 q-2 -107 -3 -130t3.5 -129t5.5 -130v-37h4q38 5 139.5 24.5t159.5 24.5q22 2 34 -16t6 -38.5t-27 -24.5q-10 -2 -41 -6.5t-43 -6.5t-38 -7t-41 -10.5t-36 -13t-38.5 -17.5t-35.5 -23q-4 -12 -4 -17q-17 -160 -35 -278l-7 -42q-29 -172 -15 -239q23 -105 141 -55 q105 44 166 61q20 7 36.5 -8.5t15.5 -34.5t-19 -30q-15 -6 -50 -25t-69 -36t-76.5 -36.5t-81 -28.5t-74 -10t-63.5 17t-43 55q-19 45 -22 93.5zM98 1909q3 24 29 39q29 15 49 -2q11 -9 13 -23t-5 -25q-2 -2 -2 -6q0 -2 -6 -8q42 -74 72 -100q19 -16 33.5 -19t23 6.5t14.5 22 t8.5 32.5t3 35t1 32t0.5 20q0 2 4 10q-27 0 -37 23q-10 20 0 48t33 31q10 5 12 5q18 0 29 -19q0 -2 1 -4.5t1 -3.5q13 -13 16 -29t-8.5 -29t-28.5 -20q4 -4 6 -8q1 -1 9 -22t15.5 -34.5t19 -26.5t25 -6.5t26.5 32.5l24 51q5 11 17 7.5t12 -15.5q0 -2 -0.5 -13.5t-0.5 -20.5 t1 -22.5t5 -21.5t10.5 -14t18 -4t27.5 12q33 18 80 65q-4 12 -4 17q-2 27 18 42.5t44 2.5q6 -3 6 -11q16 -11 20.5 -28t-8.5 -31q-18 -15 -45 -12q-7 -10 -22 -32t-23.5 -34t-22 -34t-21 -36.5t-15.5 -35t-11 -37t-3 -36t5 -36.5q39 -16 54 -33q11 -10 3.5 -20.5t-18.5 -5.5 q-6 -12 -20 -8q-81 40 -172 49q-34 3 -70 0q-9 0 -30.5 1t-34.5 1q-48 -8 -62 -13h-6q-19 -8 -25 -12q-6 -6 -16 -3t-10 13q3 42 59 52q11 60 -10 123.5t-62 140.5h-8q-16 3 -26 16q-18 9 -15 25zM233 1755q25 -73 19 -149q25 2 41 1.5t36.5 -2t26.5 -1.5q17 -1 53.5 -2 t67.5 -3.5t55 -7.5q-15 87 66 205q-51 -25 -88 -18q-17 1 -24 14.5t-11 38.5q-30 -58 -67 -47q-27 8 -48 43q-4 -89 -55 -96q-42 -3 -72 24zM287 1657l35 18v-18q0 -13 -17.5 -13t-17.5 13zM381 1661q0 9 4 25q0 6 2 12q-3 5 -1 10.5t7 7.5q13 10 21 -6q4 -9 3.5 -15 t-3 -17.5t-2.5 -16.5q-1 -9 -9 -13t-15.5 0t-6.5 13zM459 1659v14q0 2 4 10q1 8 9 10.5t16 -1.5t8 -13q0 -20 -13 -30q-5 -8 -15 -3.5t-9 13.5zM461 1987q3 9 8 14q12 12 25 12q4 2 10 2q15 -2 26 -12t11 -25q3 -10 -9 -26q0 -5 -4 -13q-19 -23 -41 -18q-17 7 -24 27 q-14 14 -2 39z" />
<glyph unicode="&#xcd;" d="M34 34q2 29 27 41q12 5 25 3q64 -12 133 -15q6 110 29 238.5t46.5 218t65 236.5t60.5 221q21 233 61 278q0 7 2 11q-25 3 -32 28q-25 2 -75.5 7t-89.5 7.5t-73 2.5q-25 1 -35.5 21.5t0 40.5t35.5 20q47 -1 150 -11.5t155 -11.5q20 10 39 0q69 3 133 21q23 7 38.5 -10 t11.5 -39t-27 -29q-67 -20 -140 -23q-7 -15 -10 -28q-16 -99 -47 -228q-5 -39 -13.5 -115.5t-16.5 -136.5t-19 -114q-74 -342 -162 -609q41 0 122 2t122 2q24 0 34 -20t0 -40t-34 -21q-33 0 -118 -1t-129.5 -1t-113 5t-125.5 15q-30 5 -29 34zM397 1542q46 133 183 273 q66 63 128 95.5t126 10.5q16 -5 25 -19t3 -30q-5 -16 -15 -31.5t-20 -26.5t-28.5 -24.5t-28.5 -19.5t-32 -19.5t-29 -17.5q-163 -92 -213 -189l-4 -8q-6 -12 -17 -16q-9 -22 -31.5 -26t-38.5 10.5t-8 37.5zM702 1817q2 1 12 6.5t15 9.5q-17 -9 -27 -16z" />
<glyph unicode="&#xce;" d="M34 34q2 29 27 41q12 5 25 3q64 -12 133 -15q6 110 29 238.5t46.5 218t65 236.5t60.5 221q21 233 61 278q0 7 2 11q-25 3 -32 28q-25 2 -75.5 7t-89.5 7.5t-73 2.5q-25 1 -35.5 21.5t0 40.5t35.5 20q47 -1 150 -11.5t155 -11.5q20 10 39 0q69 3 133 21q23 7 38.5 -10 t11.5 -39t-27 -29q-67 -20 -140 -23q-7 -15 -10 -28q-16 -99 -47 -228q-5 -39 -13.5 -115.5t-16.5 -136.5t-19 -114q-74 -342 -162 -609q41 0 122 2t122 2q24 0 34 -20t0 -40t-34 -21q-33 0 -118 -1t-129.5 -1t-113 5t-125.5 15q-30 5 -29 34zM201 1888q3 25 28 39 q30 15 50 -2q11 -9 13 -22.5t-5 -24.5q-2 -2 -2 -6q0 -2 -6 -8q2 -3 8.5 -14.5t9 -16.5t8.5 -15t10.5 -15.5t10.5 -13.5t12 -14l12 -12q19 -16 33.5 -19t23 6.5t14.5 22t8.5 32.5t3 35t1 32t0.5 20t4 11q-28 0 -37 22q-10 20 0 48.5t33 31.5q8 4 12 4q18 0 29 -18q0 -2 1 -5 t1 -4q15 -15 17 -28q3 -16 -8.5 -29t-28.5 -20q3 -3 6 -9q1 -2 9 -22.5t15.5 -34t18.5 -26.5t24.5 -6.5t26.5 32.5l25 51q4 11 16 7.5t12 -15.5q0 -1 -0.5 -13t-0.5 -21t1.5 -22.5t5.5 -21.5t10.5 -14t18 -4t27.5 12q31 17 80 66q-4 12 -4 16q-2 27 17.5 42.5t43.5 2.5 q6 -3 6 -10q16 -11 20.5 -28.5t-8.5 -31.5q-18 -15 -45 -12q-6 -10 -21.5 -32t-24 -34t-22 -33.5t-20.5 -36t-15 -35.5t-11 -37t-3 -35.5t5 -36.5q38 -15 53 -33q11 -10 4 -21t-18 -6q-6 -12 -21 -8q-81 40 -172 49q-34 3 -70 0q-9 0 -30.5 1t-34.5 1q-54 -9 -62 -12h-6 q-17 -7 -24 -12q-6 -6 -16.5 -3t-10.5 13q3 41 60 51q11 60 -10 123.5t-62 140.5h-8q-17 3 -27 17q-17 9 -14 24zM336 1735q24 -71 18 -150q25 2 41 1.5t37 -2t27 -1.5q3 0 73 -2.5t103 -9.5q-15 88 65 205q-53 -25 -88 -19q-17 1 -23.5 14.5t-10.5 38.5q-30 -58 -68 -47 q-26 8 -47 43q-4 -89 -55 -96q-41 -3 -72 25zM389 1636l35 19v-19q0 -14 -17.5 -14t-17.5 14zM483 1640q0 9 4 25q0 6 2 12q-3 5 -0.5 11t7.5 8q12 9 20 -6q4 -9 3.5 -15.5t-3 -18t-2.5 -16.5q-1 -9 -9 -13t-15.5 0t-6.5 13zM561 1638v15q0 2 4 10q1 8 9 10.5t16 -1.5t8 -13 q0 -21 -12 -31q-5 -8 -15.5 -3.5t-9.5 13.5zM563 1966q3 9 8 14q13 13 25 13q4 2 10 2q15 -2 26 -12t11 -25q3 -12 -8 -27q0 -4 -4 -12q-19 -23 -41 -18q-19 8 -25 26q-14 14 -2 39z" />
<glyph unicode="&#xd1;" horiz-adv-x="1138" d="M129 -18q-1 110 3.5 225.5t14.5 277.5t13 224q5 85 2.5 155t4.5 154.5t28 150.5q6 24 33.5 29.5t39.5 -18.5q32 -68 138.5 -262t150.5 -306q15 -39 55 -189.5t76 -221.5q14 -24 49 -74q19 -19 29 -25q81 -63 125 125q14 60 31 212v3q42 322 45 672q0 24 20.5 34t41 0 t20.5 -34v-33v-73q4 -381 -29 -586q-46 -343 -135 -414q-2 -6 -8 -14.5t-7 -11.5q-9 -14 -25 -19t-30 4q-13 7 -49 33q-68 30 -123 127q-50 69 -90.5 162t-69.5 183t-59.5 181t-76 180.5t-103.5 155.5q-5 -64 -4.5 -187.5t-3.5 -183.5q-27 -412 -25 -636q0 -24 -20.5 -34 t-41 0t-20.5 34zM517.5 1467q3.5 22 25.5 30q39 15 76 17t74 -7.5t66 -21t71 -30t69 -28.5q65 -18 131 -24q24 -2 33.5 -22.5t-1 -40t-34.5 -17.5q-12 0 -20 2v-2q-87 6 -223 50t-216 44h-4q-22 -6 -36.5 11t-11 39z" />
<glyph unicode="&#xd3;" horiz-adv-x="870" d="M63 539.5q8 139.5 52.5 282t117 257.5t179 194.5t227.5 94.5q10 5 23 2q17 -3 24 -20q66 -77 101 -189.5t40 -231t-10 -247.5t-43 -239.5t-65 -206.5q-19 -50 -51.5 -98.5t-74 -89.5t-91 -66t-99 -31t-102.5 18.5t-98 79.5q-73 89 -105.5 220t-24.5 270.5zM143.5 440 q4.5 -134 44.5 -231q19 -46 58 -88.5t87.5 -70t104 -20t99.5 59.5q64 75 96 170.5t53 224.5q4 21 14 76t14.5 82.5t12.5 82t10.5 87.5t5 84t-1 86.5t-10 81t-19 80.5t-32 72t-45.5 69q-115 -17 -212.5 -102.5t-157.5 -209t-93 -262t-28.5 -272.5zM524 1489q46 131 183 272 q66 63 128 96t126 11q16 -5 25 -19t3 -30q-5 -16 -15.5 -32t-19.5 -26.5t-28.5 -24.5t-28 -20t-32.5 -20t-29 -17q-164 -92 -213 -188q-2 -2 -5 -8q-7 -14 -16 -17q-9 -22 -31.5 -26t-38.5 11t-8 38zM829 1763q22 13 27 17q-13 -6 -27 -17z" />
<glyph unicode="&#xd4;" horiz-adv-x="870" d="M63 539.5q8 139.5 52.5 282t117 257.5t179 194.5t227.5 94.5q10 5 23 2q17 -3 24 -20q66 -77 101 -189.5t40 -231t-10 -247.5t-43 -239.5t-65 -206.5q-19 -50 -51.5 -98.5t-74 -89.5t-91 -66t-99 -31t-102.5 18.5t-98 79.5q-73 89 -105.5 220t-24.5 270.5zM143.5 440 q4.5 -134 44.5 -231q19 -46 58 -88.5t87.5 -70t104 -20t99.5 59.5q64 75 96 170.5t53 224.5q4 21 14 76t14.5 82.5t12.5 82t10.5 87.5t5 84t-1 86.5t-10 81t-19 80.5t-32 72t-45.5 69q-115 -17 -212.5 -102.5t-157.5 -209t-93 -262t-28.5 -272.5zM365 1888q3 25 28 39 q29 15 49 -2q11 -9 13.5 -22.5t-4.5 -24.5q-2 -2 -2 -6q0 -1 -7 -8q44 -76 72 -101q19 -16 33.5 -19t23 6.5t14.5 22t8.5 32.5t3 35t1 32t0.5 20t4 11q-28 0 -37 22q-10 20 0 48.5t33 31.5q8 4 12 4q18 0 29 -18q0 -2 1 -5t1 -4q14 -14 16 -28q3 -16 -8 -29t-28 -20 q3 -3 6 -9q1 -2 9 -22.5t15.5 -34t18.5 -26.5t24.5 -6.5t26.5 32.5l24 51q5 11 17 7.5t12 -15.5q0 -1 -0.5 -13t-0.5 -21t1.5 -22.5t5.5 -21.5t10.5 -14t18 -4t27.5 12q29 16 79 66q-4 12 -4 16q-2 27 18 42.5t44 2.5q6 -3 6 -10q16 -11 20.5 -28.5t-8.5 -31.5 q-18 -15 -45 -12q-6 -10 -21.5 -32t-24 -34t-22 -33.5t-20.5 -36t-15 -35.5t-11 -37t-3 -35.5t5 -36.5q38 -15 53 -33q11 -10 3.5 -21t-18.5 -6q-6 -12 -20 -8q-81 40 -172 49q-34 3 -70 0q-9 0 -30.5 1t-34.5 1q-54 -9 -62 -12h-6q-17 -7 -24 -12q-6 -6 -16.5 -3t-10.5 13 q3 41 59 51q18 99 -71 264h-8q-17 3 -27 17q-17 9 -14 24zM500 1735q24 -71 18 -150q25 2 41 1.5t37 -2t27 -1.5q3 0 73 -2.5t103 -9.5q-15 88 65 205q-53 -25 -88 -19q-17 1 -24 14.5t-11 38.5q-30 -58 -67 -47q-26 8 -47 43q-4 -88 -56 -96q-40 -3 -71 25zM553 1636l35 19 v-19q0 -14 -17.5 -14t-17.5 14zM647 1640q0 9 4 25q0 6 2 12q-3 5 -1 11t7 8q13 10 21 -6q4 -9 3.5 -15.5t-3 -18t-2.5 -16.5q-1 -9 -9 -13t-15.5 0t-6.5 13zM725 1638v15q0 2 4 10q1 8 9 10.5t16 -1.5t8 -13q0 -21 -12 -31q-5 -8 -15.5 -3.5t-9.5 13.5zM727 1966q3 9 8 14 q13 13 25 13q4 2 10 2q15 -2 26 -12t11 -25q3 -12 -8 -27q0 -4 -4 -12q-19 -23 -41 -18q-19 8 -25 26q-14 14 -2 39z" />
<glyph unicode="&#xd7;" horiz-adv-x="1228" d="M203 758q-3 22 12 36.5t37 6.5q199 -93 369 -271q17 12 77 54.5t87.5 63t72 54.5t78.5 64q17 17 38.5 9.5t26 -26t-11.5 -36.5q-33 -30 -75.5 -64t-74.5 -57t-85 -61t-80 -58q50 -55 154 -178.5t159 -183.5q17 -18 9 -39t-27 -26t-39 11l-6 9q-7 7 -9 8q-33 35 -134 147 t-158 172q-2 3 -11 12t-12 15q-196 -145 -283 -301q-13 -20 -32.5 -19.5t-32 20t-0.5 40.5q88 159 295 315q-78 85 -143 138.5t-134 70.5q-32 6 -28 37q-2 2 -8 4t-7 2q-21 9 -24 31z" />
<glyph unicode="&#xda;" horiz-adv-x="1024" d="M162 1047q26 208 63 309q3 13 17 20q7 23 28.5 27t37.5 -11t9 -38q-59 -219 -84 -389q-16 -197 11 -430q8 -78 12.5 -114t17 -106t33 -122t49.5 -93q37 -50 90 -78t105 -24q76 31 127 94q54 95 87.5 207.5t48 241t19.5 229.5t8 249t7 224q1 22 19 33t37 5t24 -28 q41 -195 26.5 -446.5t-82.5 -470.5q-84 -412 -309 -422l-8 -2q-71 -26 -150 -14t-129 65q-278 293 -114 1084zM524 1444q46 131 183 272q66 63 128 96t126 11q16 -5 25 -19t3 -30q-5 -16 -15.5 -32t-19.5 -26.5t-28.5 -24.5t-28 -20t-32.5 -20t-29 -17q-164 -92 -213 -188 q-2 -2 -5 -8q-7 -14 -16 -17q-9 -22 -31.5 -26t-38.5 11t-8 38zM829 1718q22 13 27 17q-13 -7 -27 -17z" />
<glyph unicode="&#xdb;" horiz-adv-x="1024" d="M162 1047q26 208 63 309q3 13 17 20q7 23 28.5 27t37.5 -11t9 -38q-59 -219 -84 -389q-16 -197 11 -430q8 -78 12.5 -114t17 -106t33 -122t49.5 -93q37 -50 90 -78t105 -24q76 31 127 94q54 95 87.5 207.5t48 241t19.5 229.5t8 249t7 224q1 22 19 33t37 5t24 -28 q41 -195 26.5 -446.5t-82.5 -470.5q-84 -412 -309 -422l-8 -2q-71 -26 -150 -14t-129 65q-278 293 -114 1084zM344 1888q3 24 29 39q29 15 49 -2q11 -9 13 -22.5t-5 -24.5q-2 -2 -2 -6q0 -2 -6 -8q44 -76 72 -101q19 -16 33.5 -19t23 6.5t14.5 22t8.5 32.5t3 35t1 32t0.5 20 t4 11q-28 0 -37 22q-10 20 0 48.5t33 31.5q8 4 12 4q17 0 28 -18q0 -2 1.5 -5t1.5 -4q14 -14 16 -28q3 -16 -8.5 -29t-28.5 -20q3 -3 6 -9q1 -2 9 -22.5t15.5 -34t18.5 -26.5t24.5 -6.5t26.5 32.5l25 51q5 11 17 7.5t12 -15.5q0 -2 -0.5 -13.5t-0.5 -20.5t1 -22.5t5 -21.5 t10.5 -14t18 -4t27.5 12q31 17 80 66q-4 12 -4 16q-2 27 17.5 42.5t43.5 2.5q6 -3 6 -10q16 -11 20.5 -28.5t-7.5 -31.5q-18 -15 -45 -12q-7 -10 -22 -32t-23.5 -34.5t-22 -33.5t-21 -36t-15.5 -35t-11 -36.5t-3 -36t5 -36.5q38 -15 53 -33q11 -10 4 -21t-18 -6 q-6 -12 -21 -8q-81 40 -172 49q-33 3 -69 0q-9 0 -31 1t-35 1q-52 -9 -61 -12h-6q-19 -8 -25 -12q-6 -6 -16 -3t-10 13q3 41 59 51q11 60 -10 123.5t-62 140.5h-8q-17 3 -27 17q-17 9 -14 24zM479 1735q25 -73 19 -150q25 2 41 1.5t36.5 -2t26.5 -1.5q3 0 73 -2.5t103 -9.5 q-15 87 66 205q-53 -25 -88 -19q-17 1 -24 14.5t-11 38.5q-30 -58 -68 -47q-26 8 -47 43q-4 -89 -55 -96q-41 -3 -72 25zM532 1636l35 19v-19q0 -14 -17.5 -14t-17.5 14zM627 1640q0 9 4 25q0 6 2 12q-3 5 -1 11t7 8q12 9 20 -6q4 -9 3.5 -15.5t-3 -18t-2.5 -16.5 q-1 -9 -9 -13t-15 0t-6 13zM705 1638v15q0 2 4 10q1 5 4.5 8t8 3.5t9 -0.5t7.5 -5t3 -10q0 -21 -12 -31q-5 -8 -15 -3.5t-9 13.5zM707 1966q3 9 8 14q13 13 24 13q4 2 11 2q15 -2 25.5 -12t10.5 -25q3 -12 -8 -27q0 -4 -4 -12q-19 -23 -41 -18q-18 7 -24 26q-14 14 -2 39z " />
<glyph unicode="&#xdc;" horiz-adv-x="1024" d="M162 1047q26 208 63 309q3 13 17 20q7 23 28.5 27t37.5 -11t9 -38q-59 -219 -84 -389q-16 -197 11 -430q8 -78 12.5 -114t17 -106t33 -122t49.5 -93q37 -50 90 -78t105 -24q76 31 127 94q54 95 87.5 207.5t48 241t19.5 229.5t8 249t7 224q1 22 19 33t37 5t24 -28 q41 -195 26.5 -446.5t-82.5 -470.5q-84 -412 -309 -422l-8 -2q-71 -26 -150 -14t-129 65q-278 293 -114 1084zM358 1520q-8 -29 26.5 -56.5t74.5 -21.5q41 7 50.5 28t-7.5 64q-22 56 -85 49h-1q-10 -10 -29 -31.5t-29 -31.5zM682 1434v45q0 31 28 49t61 18t61 -18t28 -49 v-45q0 -22 -44.5 -31t-89 0t-44.5 31z" />
<glyph unicode="&#xe1;" horiz-adv-x="720" d="M-4.5 152q-7.5 69 18 135t64 123.5t86.5 101.5q5 5 16.5 15.5t18.5 17.5t20 18t22 16.5t22.5 14t23 10t23.5 4t24 -3.5q15 -4 29.5 -12t23.5 -15t22.5 -23t18 -22.5t18.5 -27.5t17 -25q14 -21 1.5 -40t-34 -19.5t-37.5 18.5q-1 2 -20 27h-2q-71 -8 -135 -49t-97 -103 q-50 -87 -43 -153q4 -42 19 -78q45 -58 129 -35q147 41 264 152q0 13 10 24.5t23 14.5q42 57 59 84l2 8q8 21 29 26t38 -7.5t13 -33.5q3 -9 -4 -20l-6 -12q-18 -64 8 -157.5t63 -111.5q36 -13 78 -20q22 -3 28.5 -23t-5.5 -39t-33 -18q-43 3 -84 20q-67 20 -115 134 q-1 2 -10 24q-34 -4 -51 -8q-19 -3 -31 6q-66 -66 -151 -108q-38 -18 -74 -29.5t-79 -16.5t-80.5 9t-61.5 49q-9 12 -15 24q-6 3 -10 11q-46 54 -53.5 123zM340 874q42 119 156 242q126 126 217 94q13 -5 20 -17t4 -26q-4 -13 -10 -24t-16.5 -22.5t-17 -18.5t-22.5 -17.5 t-20.5 -14t-23.5 -15.5t-21 -13q-139 -79 -184 -168q-2 -2 -2 -6q-5 -11 -12 -14q-8 -21 -27.5 -25t-33.5 10t-7 35zM600 1118q16 8 23 15q-4 -2 -11.5 -7.5t-11.5 -7.5z" />
<glyph unicode="&#xe2;" horiz-adv-x="720" d="M-4.5 152q-7.5 69 18 135t64 123.5t86.5 101.5q5 5 16.5 15.5t18.5 17.5t20 18t22 16.5t22.5 14t23 10t23.5 4t24 -3.5q15 -4 29.5 -12t23.5 -15t22.5 -23t18 -22.5t18.5 -27.5t17 -25q14 -21 1.5 -40t-34 -19.5t-37.5 18.5q-1 2 -20 27h-2q-71 -8 -135 -49t-97 -103 q-50 -87 -43 -153q4 -42 19 -78q45 -58 129 -35q147 41 264 152q0 13 10 24.5t23 14.5q42 57 59 84l2 8q8 21 29 26t38 -7.5t13 -33.5q3 -9 -4 -20l-6 -12q-18 -64 8 -157.5t63 -111.5q36 -13 78 -20q22 -3 28.5 -23t-5.5 -39t-33 -18q-43 3 -84 20q-67 20 -115 134 q-1 2 -10 24q-34 -4 -51 -8q-19 -3 -31 6q-66 -66 -151 -108q-38 -18 -74 -29.5t-79 -16.5t-80.5 9t-61.5 49q-9 12 -15 24q-6 3 -10 11q-46 54 -53.5 123zM53 1083q3 24 29 39q29 15 49 -2q11 -9 13 -22.5t-5 -24.5q-2 -2 -2 -6q0 -2 -6 -8q44 -76 72 -101q19 -16 33.5 -19 t23 6.5t14.5 22t8.5 32.5t3 35t1 32t0.5 20t4 11q-28 0 -37 22q-10 20 0 48.5t33 31.5q8 4 12 4q18 0 29 -18q0 -2 1 -4.5t1 -3.5q13 -13 16 -29t-8.5 -29t-28.5 -20q4 -4 6 -8q1 -1 9 -22t15.5 -34.5t19 -27t25 -7t26.5 32.5l24 51q4 11 16.5 7.5t12.5 -15.5 q0 -2 -0.5 -13.5t-0.5 -20.5t1 -22.5t5 -21.5t10.5 -14t18 -4t27.5 12q31 17 80 66q-4 12 -4 16q-2 27 18 42.5t44 2.5q6 -3 6 -10q16 -11 20.5 -28t-8.5 -31q-19 -16 -45 -13q-7 -10 -22 -32t-23.5 -34.5t-22 -33.5t-21 -36t-15.5 -35t-11 -36.5t-3 -36t5 -36.5 q38 -15 53 -33q11 -10 4 -21t-18 -6q-6 -12 -20 -8q-81 40 -172 49q-34 3 -70 0q-9 0 -31 1t-35 1q-52 -9 -61 -12h-6q-19 -8 -25 -12q-6 -6 -16 -3t-10 13q3 41 59 51q11 60 -10 123.5t-62 140.5h-8q-16 3 -26 17q-18 9 -15 24zM188 930q25 -73 19 -150q25 2 41 1.5 t36.5 -2t26.5 -1.5q3 0 73 -2.5t103 -9.5q-15 87 66 205q-53 -25 -88 -19q-27 2 -35 54q-31 -59 -68 -48q-26 8 -47 43q-4 -89 -55 -96q-41 -3 -72 25zM242 831v19q0 11 8.5 15.5t17 0t8.5 -15.5v-19q0 -13 -17 -13t-17 13zM336 836q0 8 4 24q0 6 2 12q-3 5 -1 11t7 8 q13 10 21 -6q4 -9 3.5 -15t-3 -17.5t-2.5 -16.5q-1 -9 -9 -13t-15.5 0t-6.5 13zM414 834v14q0 2 4 10q1 8 9 10.5t16 -1.5t8 -13q0 -21 -13 -31q-5 -8 -15 -3t-9 14zM416 1161q4 10 8 15q12 12 25 12q4 2 10 2q15 -2 26 -12t11 -25q3 -11 -9 -27q0 -4 -4 -12 q-19 -23 -41 -18q-18 7 -24 26q-14 14 -2 39z" />
<glyph unicode="&#xe7;" horiz-adv-x="720" d="M-4 246q-22 110 11 239.5t114 196.5q0 2 2 2q3 4 14 10q4 2 8 6q59 36 108 22t82 -54t46.5 -96.5t1.5 -104.5q-7 -23 -29 -27.5t-39.5 10.5t-11.5 39q12 43 1 73.5t-33.5 47t-52.5 16t-56 -19.5q-43 -60 -54.5 -142.5t8 -158.5t74.5 -135.5t134 -73.5q175 -33 376 148 q16 15 37.5 10t29.5 -22t-3 -37q-47 -65 -125.5 -114t-169.5 -71q25 -32 25 -74t-23 -79q-30 -45 -81.5 -70.5t-106.5 -19.5q-56 6 -75.5 47t7.5 90q14 20 34.5 19.5t34 -20t1.5 -40.5l-6 -13q1 -1 4 -2q24 -5 55 5q33 11 57.5 37.5t16.5 58.5q-2 9 -9.5 16t-19.5 11.5 t-21.5 7t-24 5t-18.5 3.5q-8 0 -20 4q-115 8 -197 70.5t-106 179.5z" />
<glyph unicode="&#xe9;" horiz-adv-x="757" d="M74 360.5q-8 72.5 6.5 141t57 127t108.5 88.5q87 41 194 14l25 -6l12 -6q76 -32 110.5 -96.5t2.5 -151.5q-45 -119 -163.5 -162t-246.5 -10q43 -117 159.5 -181.5t238.5 -35.5q24 5 38.5 -11t9.5 -38t-28 -31q-146 -57 -280 11t-207 214q-29 61 -37 133.5zM166 387 q48 -17 109 -18.5t118 13t93.5 56t31.5 103.5q-6 76 -55 104q-13 0 -21 2q-66 20 -130.5 -17t-103.5 -104.5t-42 -138.5zM334 870q42 121 155 242q126 126 218 94q13 -5 20 -17t4 -26q-4 -13 -10 -24t-16.5 -22.5t-17 -18.5t-22.5 -17.5t-20.5 -14t-23.5 -15.5t-21 -13 q-139 -79 -184 -168q-2 -2 -2 -6q-5 -10 -13 -14q-8 -21 -27 -25t-33 10t-7 35zM594 1114q16 8 22 14q-4 -2 -11 -7t-11 -7z" />
<glyph unicode="&#xea;" horiz-adv-x="665" d="M74 260.5q-8 72.5 6.5 141t57 126.5t108.5 88q88 42 194 15l25 -6q2 -1 6 -3.5t6 -3.5q76 -32 110.5 -96t2.5 -151q-45 -119 -163.5 -162t-246.5 -10q43 -117 159.5 -181.5t238.5 -35.5q24 5 38.5 -11t9.5 -38t-28 -31q-146 -57 -280 11t-207 214q-29 61 -37 133.5z M115 1124q3 25 28 39q30 15 50 -2q11 -9 13 -22.5t-5 -24.5q-2 -2 -2 -6q0 -2 -6 -8q2 -3 8.5 -14.5t9 -16.5t8.5 -15t10.5 -15.5t10.5 -13.5t12 -14l12 -12q19 -16 33.5 -19t23 6.5t14.5 22t8.5 32.5t3 35t1 32t0.5 20t4 11q-28 0 -37 22q-10 20 0 48.5t33 31.5q8 4 12 4 q18 0 29 -18q0 -2 1 -4.5t1 -3.5q15 -15 17 -29q3 -16 -8.5 -29t-28.5 -20q4 -4 6 -8q1 -2 9 -22.5t15.5 -34t18.5 -26.5t24.5 -7t26.5 32l25 51q4 11 16 7.5t12 -15.5q0 -1 -0.5 -13t-0.5 -21t1.5 -22.5t5.5 -21.5t10.5 -14t18 -4t27.5 12q31 17 80 66q-4 12 -4 16 q-2 27 17.5 42.5t43.5 2.5q6 -3 6 -10q16 -11 20.5 -28t-8.5 -31q-19 -16 -45 -13q-6 -10 -21.5 -32t-24 -34t-22 -33.5t-20.5 -36t-15 -35.5t-11 -37t-3 -35.5t5 -36.5q38 -15 53 -33q11 -10 4 -21t-18 -6q-6 -12 -21 -8q-81 40 -172 49q-34 3 -70 0q-9 0 -30.5 1t-34.5 1 q-54 -9 -62 -12h-6q-17 -7 -24 -12q-6 -6 -16.5 -3t-10.5 13q3 41 60 51q11 60 -10 123.5t-62 140.5h-8q-17 3 -27 17q-17 9 -14 24zM166 287q48 -17 109 -18.5t118 12.5t93.5 55.5t31.5 103.5q-6 77 -55 105q-13 0 -21 2q-66 20 -130.5 -17t-103.5 -104.5t-42 -138.5z M250 971q24 -71 18 -150q25 2 41 1.5t37 -2t27 -1.5q3 0 73 -2.5t103 -9.5q-15 88 65 205q-53 -25 -88 -19q-17 1 -23.5 14.5t-10.5 39.5q-31 -59 -68 -48q-26 8 -47 43q-4 -89 -55 -96q-41 -3 -72 25zM303 872l35 19v-19q0 -14 -17.5 -14t-17.5 14zM397 877q0 8 4 24 q0 6 2 12q-3 5 -0.5 11t7.5 8q12 9 20 -6q4 -9 3.5 -15t-3 -17.5t-2.5 -16.5q-1 -9 -9 -13t-15.5 0t-6.5 13zM475 874v15q0 2 4 10q1 8 9 10.5t16 -1.5t8 -13q0 -21 -12 -31q-5 -8 -15.5 -3.5t-9.5 13.5zM477 1202q3 10 8 15q12 12 25 12q4 2 10 2q15 -2 26 -12t11 -25 q3 -12 -8 -27q0 -4 -4 -12q-19 -23 -41 -18q-19 8 -25 26q-14 14 -2 39z" />
<glyph unicode="&#xed;" horiz-adv-x="530" d="M98 628.5q-2 17.5 11 30.5q-7 25 18 41q47 20 77 13.5t46 -40t21 -70t3 -77.5q-1 -25 -10.5 -86.5t-14.5 -113t-4 -107.5t23 -95.5t64 -53.5q25 -9 28.5 -34.5t-18.5 -39.5q-43 -26 -75 -24.5t-54.5 29t-34.5 62t-16 74.5q-12 89 -6 180q1 11 7 68t7 90.5t-10.5 73 t-40.5 53.5q-19 9 -21 26.5zM174 891q42 119 156 242q126 126 217 94q13 -5 20 -17t4 -26q-4 -13 -10 -24t-16.5 -22.5t-17 -18.5t-22.5 -17.5t-20.5 -14t-23.5 -15.5t-21 -13q-139 -79 -184 -168q-2 -2 -2 -6q-6 -12 -12 -15q-8 -21 -27.5 -24.5t-33.5 10.5t-7 35z M434 1135q18 9 23 14q-4 -2 -11.5 -7t-11.5 -7z" />
<glyph unicode="&#xee;" horiz-adv-x="409" d="M-88 1165q3 24 29 39q29 15 49 -2q11 -9 13 -22.5t-5 -24.5q-2 -2 -2 -6q0 -2 -6 -8q2 -3 8.5 -14.5t9 -16.5t8.5 -15t10.5 -15.5t10.5 -13.5t12 -14l12 -12q19 -16 33.5 -19t23 6.5t14.5 22t8.5 32.5t3 35t1 32t0.5 20q0 1 5 11q-28 0 -37 22q-10 20 -0.5 48.5 t32.5 31.5q8 4 13 4q17 0 28 -18q0 -2 1 -4.5t1 -3.5q15 -15 17 -29q3 -16 -8.5 -29t-28.5 -20q4 -4 6 -8q1 -2 9 -22.5t15.5 -34t18.5 -26.5t24.5 -7t26.5 32l25 51q5 11 17 7.5t12 -15.5q0 -2 -0.5 -13.5t-0.5 -20.5t1 -22.5t5 -21.5t10.5 -14t18 -4t27.5 12q31 17 80 66 q-4 12 -4 16q-2 27 17.5 42.5t43.5 2.5q6 -3 6 -10q16 -11 20.5 -28t-7.5 -31q-19 -16 -45 -13q-7 -10 -22 -32t-23.5 -34.5t-22 -33.5t-21 -36t-15.5 -35t-11 -36.5t-3 -36t5 -36.5q38 -15 53 -33q11 -10 4 -21t-18 -6q-6 -12 -21 -8q-81 40 -172 49q-33 3 -69 0 q-9 0 -31 1t-35 1q-52 -9 -61 -12h-6q-19 -8 -25 -12q-6 -6 -16.5 -3t-10.5 13q3 41 60 51q11 60 -10 123.5t-62 140.5h-8q-17 3 -27 17q-17 9 -14 24zM47 1012q25 -73 19 -150q25 2 41 1.5t36.5 -2t26.5 -1.5q3 0 73 -2.5t103 -9.5q-15 87 66 205q-53 -25 -88 -19 q-17 1 -24 14.5t-11 38.5q-30 -58 -68 -47q-26 8 -47 43q-4 -89 -55 -96q-41 -3 -72 25zM98 628.5q-2 17.5 11 30.5q-7 25 18 41q47 20 77 13.5t46 -40t21 -70t3 -77.5q-1 -25 -10.5 -86.5t-14.5 -113t-4 -107.5t23 -95.5t64 -53.5q25 -9 28.5 -34.5t-18.5 -39.5 q-43 -26 -75 -24.5t-54.5 29t-34.5 62t-16 74.5q-12 89 -6 180q1 11 7 68t7 90.5t-10.5 73t-40.5 53.5q-19 9 -21 26.5zM100 913l35 19v-19q0 -13 -17.5 -13t-17.5 13zM195 918q0 8 4 24q0 6 2 12q-3 5 -1 11t7 8q12 9 20 -6q4 -9 3.5 -15t-3 -17.5t-2.5 -16.5q-1 -9 -9 -13 t-15 0t-6 13zM272 915v15q0 2 4 10q1 8 9 10.5t16 -1.5t8 -13q0 -21 -12 -31q-5 -8 -15.5 -3.5t-9.5 13.5zM274 1243q2 7 9 14q13 13 24 13q4 2 10 2q15 -2 26 -12t11 -25q3 -12 -8 -27q0 -4 -4 -12q-19 -23 -41 -18q-19 8 -25 26q-14 14 -2 39z" />
<glyph unicode="&#xf1;" horiz-adv-x="819" d="M4 -12q-13 96 51 194q96 151 123 393q3 24 24.5 34t41 0t16.5 -34q-8 -75 -14 -114q41 42 83.5 73t89.5 51.5t94 18t87 -30.5q63 -18 110 -67t48 -109q2 -97 -45 -227q-2 -6 -15.5 -39.5t-21 -61.5t-2.5 -42q17 -7 41 -4q22 2 32.5 -15.5t4 -38t-26.5 -26.5 q-51 -19 -88.5 -6t-48.5 51q-44 69 -8 248q26 139 20 198q-6 44 -25 66q-12 3 -26 0q-56 -2 -109 -31.5t-92.5 -74t-80 -104.5t-69.5 -114.5t-64.5 -113.5t-61.5 -93q-14 -17 -39.5 -10t-28.5 29zM383 973.5q-10 28.5 18 40.5q39 17 77.5 19t74 -9.5t65.5 -26t67.5 -33.5 t64.5 -28q38 -8 65 -10q24 -3 34 -24t0 -40.5t-34 -17.5q-10 0 -14 2v-2q-61 6 -179 50t-188 44q-2 0 -6 1t-6 1q-29 5 -39 33.5z" />
<glyph unicode="&#xf3;" horiz-adv-x="757" d="M19.5 150q-17.5 60 0.5 133q12 48 32.5 95.5t51.5 94t70 75.5t87.5 40t103.5 -13l12 -8q151 43 248 -57q120 -72 120 -221q-1 -76 -41.5 -142.5t-103.5 -108.5t-139 -63t-146 -14t-129 30t-104 61t-62.5 98zM164 256q2 -82 51.5 -142t130.5 -57q88 2 165.5 44.5 t100.5 121.5q19 75 3 135.5t-60 96.5q-56 20 -118 19t-118 -19q-24 -6 -36 6q-124 -100 -119 -205zM240 879q42 119 155 241q126 126 217 94q31 -12 25 -43q-5 -15 -14.5 -29t-16.5 -22.5t-25 -22t-23 -17.5t-28 -18t-24 -15q-139 -79 -184 -168q-3 -3 -3 -7q-5 -11 -12 -14 q-8 -21 -27 -24.5t-33 10.5t-7 35zM500 1122q14 7 22 15q-4 -2 -11 -7.5t-11 -7.5z" />
<glyph unicode="&#xf4;" horiz-adv-x="757" d="M19.5 150q-17.5 60 0.5 133q12 48 32.5 95.5t51.5 94t70 75.5t87.5 40t103.5 -13l12 -8q151 43 248 -57q120 -72 120 -221q-1 -76 -41.5 -142.5t-103.5 -108.5t-139 -63t-146 -14t-129 30t-104 61t-62.5 98zM115 1083q3 25 28 39q30 15 50 -2q11 -9 13 -22.5t-5 -24.5 q-2 -2 -2 -6q0 -2 -6 -8q2 -3 8.5 -14.5t9 -16.5t8.5 -15t10.5 -15.5t10.5 -13.5t12 -14l12 -12q19 -16 33.5 -19t23 6.5t14.5 22t8.5 32.5t3 35t1 32t0.5 20t4 11q-28 0 -37 22q-10 20 0 48.5t33 31.5q8 4 12 4q18 0 29 -18q0 -2 1 -4.5t1 -3.5q15 -15 17 -29 q3 -16 -8.5 -29t-28.5 -20q4 -4 6 -8q1 -2 9 -22.5t15.5 -34t18.5 -26.5t24.5 -7t26.5 32l25 51q4 11 16 7.5t12 -15.5q0 -1 -0.5 -13t-0.5 -21t1.5 -22.5t5.5 -21.5t10.5 -14t18 -4t27.5 12q31 17 80 66q-4 12 -4 16q-2 27 17.5 42.5t43.5 2.5q6 -3 6 -10q16 -11 20.5 -28 t-8.5 -31q-19 -16 -45 -13q-6 -10 -21.5 -32t-24 -34t-22 -33.5t-20.5 -36t-15 -35.5t-11 -37t-3 -35.5t5 -36.5q38 -15 53 -33q11 -10 4 -21t-18 -6q-6 -12 -21 -8q-81 40 -172 49q-34 3 -70 0q-9 0 -30.5 1t-34.5 1q-54 -9 -62 -12h-6q-17 -7 -24 -12q-6 -6 -16.5 -3 t-10.5 13q3 41 60 51q11 60 -10 123.5t-62 140.5h-8q-17 3 -27 17q-17 9 -14 24zM164 256q2 -82 51.5 -142t130.5 -57q88 2 165.5 44.5t100.5 121.5q19 75 3 135.5t-60 96.5q-56 20 -118 19t-118 -19q-24 -6 -36 6q-124 -100 -119 -205zM250 930q24 -71 18 -150q25 2 41 1.5 t37 -2t27 -1.5q3 0 73 -2.5t103 -9.5q-15 88 65 205q-53 -25 -88 -19q-17 1 -23.5 14.5t-10.5 39.5q-31 -59 -68 -48q-26 8 -47 43q-4 -89 -55 -96q-41 -3 -72 25zM303 831v19q0 17 17.5 17t17.5 -17v-19q0 -13 -17.5 -13t-17.5 13zM397 836q0 8 4 24q0 6 2 12q-3 5 -0.5 11 t7.5 8q12 9 20 -6q4 -9 3.5 -15t-3 -17.5t-2.5 -16.5q-1 -9 -9 -13t-15.5 0t-6.5 13zM475 834v14q0 2 4 10q1 8 9 10.5t16 -1.5t8 -13q0 -21 -12 -31q-5 -8 -15.5 -3t-9.5 14zM477 1161q3 10 8 15q12 12 25 12q4 2 10 2q15 -2 26 -12t11 -25q3 -12 -8 -27q0 -4 -4 -12 q-19 -23 -41 -18q-19 8 -25 26q-14 14 -2 39z" />
<glyph unicode="&#xfa;" d="M63 335.5q6 77.5 25 162.5q12 108 45 186q6 14 21 18q21 17 47 3t16 -43q-39 -115 -53 -197q-11 -114 12 -234q7 -38 11 -53.5t15 -49t28 -54t40 -31.5q40 -16 74 -16q28 7 47 18q14 8 25 27q28 45 46 97t26.5 114t12 105.5t5.5 119t4 106.5q3 26 26.5 36t43.5 -7 q43 -38 65.5 -96.5t22.5 -122t-15 -132.5t-47 -130t-73.5 -113t-95 -82t-111 -37t-121.5 23q-62 28 -97.5 88t-43 138.5t-1.5 156zM379 891q42 119 156 242q126 126 217 94q13 -5 20 -17t4 -26q-4 -13 -10 -24t-16.5 -22.5t-17 -18.5t-22.5 -17.5t-20.5 -14t-23.5 -15.5 t-21 -13q-139 -79 -184 -168q-2 -2 -2 -6q-6 -11 -13 -15q-8 -21 -27 -24.5t-33 10.5t-7 35zM639 1135q18 9 23 14q-4 -2 -11.5 -7t-11.5 -7z" />
<glyph unicode="&#xfb;" d="M53 1206q3 24 29 39q29 15 49 -2q11 -9 13 -22.5t-5 -24.5q-2 -2 -2 -6q0 -2 -6 -8q44 -76 72 -101q19 -16 33.5 -19t23 6.5t14.5 22t8.5 32.5t3 35t1 32t0.5 20t4 11q-28 0 -37 22q-10 20 0 48.5t33 31.5q8 4 12 4q18 0 29 -18q0 -2 1 -5t1 -4q14 -14 16 -28 q3 -16 -8.5 -29t-28.5 -20q3 -3 6 -9q1 -1 9 -22t15.5 -34.5t19 -26.5t25 -6.5t26.5 32.5l24 51q4 11 16.5 7.5t12.5 -15.5q0 -2 -0.5 -13.5t-0.5 -20.5t1 -22.5t5 -21.5t10.5 -14t18 -4t27.5 12q31 17 80 66q-4 12 -4 16q-2 27 18 42.5t44 2.5q6 -3 6 -10q16 -11 20.5 -28 t-8.5 -31q-19 -16 -45 -13q-7 -10 -22 -32t-23.5 -34.5t-22 -33.5t-21 -36t-15.5 -35t-11 -36.5t-3 -36t5 -36.5q38 -15 53 -33q11 -10 4 -21t-18 -6q-6 -12 -20 -8q-81 40 -172 49q-34 3 -70 0q-9 0 -31 1t-35 1q-52 -9 -61 -12h-6q-19 -8 -25 -12q-6 -6 -16 -3t-10 13 q3 41 59 51q11 60 -10 123.5t-62 140.5h-8q-16 3 -26 17q-18 9 -15 24zM63 335.5q6 77.5 25 162.5q12 108 45 186q6 14 21 18q21 17 47 3t16 -43q-39 -115 -53 -197q-11 -114 12 -234q7 -38 11 -53.5t15 -49t28 -54t40 -31.5q40 -16 74 -16q28 7 47 18q14 8 25 27 q28 45 46 97t26.5 114t12 105.5t5.5 119t4 106.5q3 26 26.5 36t43.5 -7q43 -38 65.5 -96.5t22.5 -122t-15 -132.5t-47 -130t-73.5 -113t-95 -82t-111 -37t-121.5 23q-62 28 -97.5 88t-43 138.5t-1.5 156zM188 1053q25 -73 19 -150q25 2 41 1.5t36.5 -2t26.5 -1.5 q3 0 73 -2.5t103 -9.5q-15 87 66 205q-53 -25 -88 -19q-17 1 -24 14.5t-11 38.5q-30 -58 -68 -47q-26 8 -47 43q-4 -89 -55 -96q-41 -3 -72 25zM242 954l34 19v-19q0 -14 -17 -14t-17 14zM336 958q0 9 4 25q0 6 2 12q-3 5 -1 11t7 8q13 10 21 -6q4 -9 3.5 -15.5t-3 -18 t-2.5 -16.5q-1 -9 -9 -13t-15.5 0t-6.5 13zM414 956v15q0 2 4 10q1 8 9 10.5t16 -1.5t8 -13q0 -21 -13 -31q-5 -8 -15 -3.5t-9 13.5zM416 1284q3 9 8 14q13 13 25 13q4 2 10 2q15 -2 26 -12t11 -25q3 -11 -9 -27q0 -4 -4 -12q-19 -23 -41 -18q-18 7 -24 26q-14 14 -2 39z " />
<glyph unicode="&#xfc;" d="M57.5 243q-1.5 67 5.5 128.5t21 128.5q15 111 47 186q5 13 21 21q21 16 47 1t16 -44q-39 -115 -55 -195q-9 -119 14 -233q20 -101 42 -140q21 -36 52 -49q40 -19 74 -16q23 6 47 16q17 17 25 29q28 45 46 96t26.5 113t12 105.5t5.5 119t4 106.5q2 27 26 37t44 -8 q38 -34 60 -83.5t26 -105t-4.5 -116.5t-31 -118t-54 -110t-73.5 -91.5t-89 -63t-100.5 -25t-108.5 22.5q-50 23 -83 68t-47 99t-15.5 121zM168 899q10 10 28.5 32t28.5 32q67 0 86 -50q17 -43 7.5 -64t-50.5 -28q-40 -6 -74 21.5t-26 56.5zM446 809v45q0 31 28 49t61.5 18 t61.5 -18t28 -49v-45q0 -22 -44.5 -31t-89.5 0t-45 31z" />
<glyph unicode="&#x2dc;" horiz-adv-x="530" d="M1.5 1268q3.5 22 25.5 30q39 15 76 17t74 -7.5t66 -20.5t71.5 -29.5t70.5 -28.5q87 -21 129 -25q24 -2 34 -22.5t-0.5 -40t-35.5 -17.5l-9 1q-9 1 -9 -1q-87 6 -224 50.5t-217 44.5h-4q-21 -6 -36 10.5t-11.5 38.5z" />
<glyph unicode="&#x2000;" horiz-adv-x="1015" />
<glyph unicode="&#x2001;" horiz-adv-x="2030" />
<glyph unicode="&#x2002;" horiz-adv-x="1015" />
<glyph unicode="&#x2003;" horiz-adv-x="2030" />
<glyph unicode="&#x2004;" horiz-adv-x="676" />
<glyph unicode="&#x2005;" horiz-adv-x="507" />
<glyph unicode="&#x2006;" horiz-adv-x="338" />
<glyph unicode="&#x2007;" horiz-adv-x="338" />
<glyph unicode="&#x2008;" horiz-adv-x="253" />
<glyph unicode="&#x2009;" horiz-adv-x="406" />
<glyph unicode="&#x200a;" horiz-adv-x="112" />
<glyph unicode="&#x2010;" horiz-adv-x="681" d="M87 453q-9 30 7 45q3 3 6 4q69 34 143 36.5t184 -17.5t146 -23q16 -2 21.5 -27.5t-10.5 -36.5q-19 -15 -45 -22q-19 -5 -27 24q-16 3 -65 12t-70.5 12.5t-64 7.5t-70 1.5t-63 -10.5t-66.5 -23q-18 -9 -26 17z" />
<glyph unicode="&#x2011;" horiz-adv-x="681" d="M87 453q-9 30 7 45q3 3 6 4q69 34 143 36.5t184 -17.5t146 -23q16 -2 21.5 -27.5t-10.5 -36.5q-19 -15 -45 -22q-19 -5 -27 24q-16 3 -65 12t-70.5 12.5t-64 7.5t-70 1.5t-63 -10.5t-66.5 -23q-18 -9 -26 17z" />
<glyph unicode="&#x2012;" horiz-adv-x="681" d="M87 453q-9 30 7 45q3 3 6 4q69 34 143 36.5t184 -17.5t146 -23q16 -2 21.5 -27.5t-10.5 -36.5q-19 -15 -45 -22q-19 -5 -27 24q-16 3 -65 12t-70.5 12.5t-64 7.5t-70 1.5t-63 -10.5t-66.5 -23q-18 -9 -26 17z" />
<glyph unicode="&#x2013;" horiz-adv-x="1192" d="M89 453q-18 30 14 45q6 3 12 4q138 34 286 36.5t368 -17.5t292 -23q32 -2 43 -27.5t-21 -36.5q-38 -15 -90 -22q-38 -5 -54 24q-32 3 -130 12t-141 12.5t-128 7.5t-140 1.5t-126 -10.5t-133 -23q-36 -9 -52 17z" />
<glyph unicode="&#x2014;" horiz-adv-x="2216" d="M96 453q-36 30 28 45q12 3 24 4q276 34 572 36.5t735.5 -17.5t583.5 -23q64 -2 86 -27.5t-42 -36.5q-76 -15 -180 -22q-76 -5 -108 24q-64 3 -259.5 12t-281.5 12.5t-256 7.5t-280 1.5t-252 -10.5t-266 -23q-72 -9 -104 17z" />
<glyph unicode="&#x2018;" horiz-adv-x="417" d="M94 1001q0 33 24.5 127.5t66.5 185.5t79 91q60 0 60 -96q0 -35 -5 -86.5t-17.5 -120.5t-41 -116.5t-67.5 -47.5q-37 0 -68 15t-31 48z" />
<glyph unicode="&#x2019;" horiz-adv-x="417" d="M-31 1362q0 17 13.5 25.5t29.5 5.5l27 -7q26 21 43 -2q16 -20 22 -26q2 -1 6.5 -2t6.5 -2q17 -8 20 -25q28 -24 83.5 -63t96.5 -74t66 -72q63 -66 39 -145q-4 -13 -14.5 -19t-22 -4.5t-20.5 10t-9 21.5q3 49 -28 102q-22 21 -55.5 39.5t-76.5 37.5t-53 24 q-31 15 -46.5 23t-44 26.5t-43 34.5t-27 40.5t-13.5 51.5z" />
<glyph unicode="&#x201c;" horiz-adv-x="720" d="M164 1139q4 13 33.5 100.5t46.5 132.5q4 18 18 60q3 20 27 30q29 10 47 -12q8 -10 9.5 -24.5t-3.5 -30.5t-10.5 -29.5t-13.5 -30t-11 -24.5q-23 -63 -63 -195q-8 -23 -30.5 -27.5t-39.5 11t-10 39.5zM358 1106.5q-13 19.5 0 40.5q45 78 64 151q0 2 4 15t5 17.5t4 16 t3.5 18t1 16t-1 17.5t-4.5 15q-8 23 8 38t38.5 11t31.5 -26q43 -108 -84 -330q-15 -20 -36 -19.5t-34 20z" />
<glyph unicode="&#x201d;" horiz-adv-x="720" d="M164 1139q4 13 33.5 100.5t46.5 132.5q4 18 18 60q3 20 27 30q29 10 47 -12q8 -10 9.5 -24.5t-3.5 -30.5t-10.5 -29.5t-13.5 -30t-11 -24.5q-23 -63 -63 -195q-8 -23 -30.5 -27.5t-39.5 11t-10 39.5zM358 1106.5q-13 19.5 0 40.5q45 78 64 151q0 2 4 15t5 17.5t4 16 t3.5 18t1 16t-1 17.5t-4.5 15q-8 23 8 38t38.5 11t31.5 -26q43 -108 -84 -330q-15 -20 -36 -19.5t-34 20z" />
<glyph unicode="&#x2022;" horiz-adv-x="1024" d="M203 793q0 53 40 125t105 126t125 54q126 0 228 -92t102 -201q0 -65 -41 -123.5t-100 -94.5t-118 -56.5t-100 -20.5q-70 0 -127 46t-85.5 110t-28.5 127z" />
<glyph unicode="&#x2026;" horiz-adv-x="2048" d="M680 86q0 15 8 23l4 6q11 15 25 18q4 2 10 2q8 0 10 -2q12 -3 23 -14l4 -4q8 -7 12 -21q9 -26 -16 -47q-31 -22 -49 -6q-29 19 -31 45zM756 68zM940 86q0 15 8 23l4 6q11 15 25 18q4 2 10 2q8 0 10 -2q12 -3 23 -14l4 -4q8 -7 12 -21q9 -26 -16 -47q-31 -22 -49 -6 q-29 19 -31 45zM1016 68zM1200 86q0 15 8 23l4 6q11 15 25 18q4 2 10 2q8 0 10 -2q12 -3 23 -14l4 -4q8 -7 12 -21q9 -26 -16 -47q-31 -22 -49 -6q-29 19 -31 45zM1276 68z" />
<glyph unicode="&#x202f;" horiz-adv-x="406" />
<glyph unicode="&#x205f;" horiz-adv-x="507" />
<glyph unicode="&#x20ac;" horiz-adv-x="1228" d="M5 588.5q-10 20.5 0 40.5t34 20q82 -4 121 -4q53 268 307 473q56 46 119 73.5t122.5 36.5t126 11t130.5 -4q125 3 229 -10q20 1 30.5 -13.5t8.5 -33.5q-2 -15 -12 -25.5t-27 -7.5q-36 -1 -164 8q-109 0 -208.5 -16.5t-194 -55t-167.5 -96.5t-124 -145.5t-68 -196.5 q219 -4 355 -20q24 -2 34.5 -23t0.5 -40.5t-35 -16.5q-139 16 -361 20q-2 -2 -2 -6q0 -53 6 -100q41 0 119 2t142 2t120 -4q25 -3 35 -24t-0.5 -40.5t-34.5 -17.5q-105 8 -360 2q17 -46 45 -84t60.5 -65t78.5 -47.5t88 -33t99 -20t102 -10.5t107.5 -3t103.5 2t102 5 q21 1 32.5 -17t5 -38t-27.5 -25q-77 -20 -159.5 -30.5t-173 -10t-174 14t-160 47t-134.5 83.5t-94.5 127.5t-42.5 176.5q-2 39 2 116q-71 0 -108 2q-24 1 -34 21.5z" />
<glyph unicode="&#x25fc;" horiz-adv-x="624" d="M0 0v625h625v-625h-625z" />
</font>
</defs>
</svg>
